<svg width="251" height="165" viewBox="0 0 251 165" fill="none" xmlns="http://www.w3.org/2000/svg">
<path d="M19.5656 147.203C17.2531 145.312 14.8393 143.506 12.6956 141.43C11.6997 140.468 10.7713 139.421 10.0623 138.223C9.691 137.615 9.38716 136.957 9.16773 136.281C8.98205 135.724 8.79638 134.864 9.6066 134.779C9.91043 134.745 10.2311 134.813 10.5181 134.897C10.8388 134.982 10.9738 134.492 10.6531 134.408C9.691 134.171 8.30687 134.239 8.45878 135.589C8.64446 137.109 9.64036 138.661 10.5519 139.826C12.915 142.864 16.2572 145.143 19.2111 147.557C19.4643 147.76 19.8188 147.405 19.5656 147.203Z" fill="#E8E8E8"/>
<path d="M10.7377 134.492C9.75863 133.327 8.99905 131.977 8.56018 130.509C8.35763 129.85 8.27323 129.175 8.07067 128.534C7.93563 128.129 7.68244 127.757 8.05379 127.403C8.22259 127.251 8.47578 127.15 8.66146 127.014C9.23537 126.626 9.55608 126.171 8.84713 125.681C8.44202 125.411 7.93564 125.36 7.49677 125.141C6.90598 124.82 6.45023 124.297 6.11264 123.74C5.40369 122.592 5.01546 121.242 4.59347 119.976C4.08708 118.473 3.59757 116.937 3.1587 115.418C2.28096 112.346 1.55514 109.24 0.964352 106.118C0.913713 106.219 0.846195 106.32 0.795556 106.421C3.96892 105.375 7.12541 108.059 9.38728 109.966C11.7167 111.924 13.8097 114.169 15.6496 116.6C19.4475 121.664 22.0976 127.504 23.7518 133.598C24.7646 137.328 25.406 141.16 25.7605 145.008C25.7943 145.329 26.3007 145.329 26.2669 145.008C25.0347 131.724 20.1396 118.271 9.65736 109.51C7.26045 107.519 4.01956 104.835 0.677399 105.932C0.542362 105.982 0.474844 106.101 0.508603 106.236C1.13315 109.578 1.92649 112.886 2.88863 116.161C3.34438 117.697 3.81701 119.216 4.34028 120.718C4.76227 121.934 5.1505 123.233 5.8932 124.297C6.18015 124.702 6.50087 125.073 6.90598 125.36C7.39549 125.715 7.96939 125.749 8.4589 126.052C9.10033 126.441 8.17195 126.744 7.83436 126.981C7.58116 127.166 7.34485 127.386 7.29421 127.723C7.22669 128.23 7.66556 128.821 7.78372 129.293C7.95251 130.019 8.10443 130.728 8.37451 131.437C8.86401 132.686 9.55608 133.834 10.4169 134.864C10.5857 135.1 10.9402 134.745 10.7377 134.492Z" fill="#E8E8E8"/>
<path d="M3.5132 108.835C10.5689 116.802 16.0548 126.103 19.6332 136.129C20.6291 138.915 21.4562 141.75 22.1483 144.62C22.2327 144.941 22.7053 144.806 22.6378 144.485C20.1396 134.087 15.6496 124.179 9.43795 115.452C7.71623 113.021 5.85947 110.692 3.88455 108.464C3.64824 108.244 3.29377 108.599 3.5132 108.835Z" fill="#E8E8E8"/>
<path d="M4.66101 119.942C5.47123 120.145 6.26457 120.415 7.04104 120.735C7.34487 120.853 7.47991 120.364 7.17607 120.246C6.39961 119.925 5.60627 119.655 4.79605 119.452C4.49221 119.368 4.35718 119.858 4.66101 119.942Z" fill="#E8E8E8"/>
<path d="M10.6026 131.15C11.6997 131.116 12.6112 131.69 13.5058 132.23C14.3161 132.72 15.1094 133.209 15.8859 133.749C17.4894 134.863 18.9411 136.18 19.9032 137.902C20.0551 138.189 20.494 137.936 20.3421 137.649C19.3293 135.859 17.8101 134.475 16.1391 133.327C15.2613 132.72 14.3329 132.146 13.4046 131.606C12.5268 131.082 11.6322 130.644 10.5857 130.66C10.2818 130.644 10.2818 131.15 10.6026 131.15Z" fill="#E8E8E8"/>
<path d="M17.3205 128.112C16.8648 125.377 16.8817 122.609 17.3712 119.891C17.4218 119.571 16.9323 119.436 16.8817 119.756C16.3753 122.575 16.3584 125.428 16.831 128.247C16.8817 128.567 17.3712 128.432 17.3205 128.112Z" fill="#E8E8E8"/>
<path d="M16.4598 116.549C16.8143 113.207 17.5232 109.865 18.7048 106.725C19.7007 104.075 21.1861 101.476 23.7349 100.058C23.5999 99.9902 23.4817 99.9058 23.3467 99.8383C23.6168 104.531 26.3682 108.7 26.4863 113.41C26.5538 113.325 26.6045 113.241 26.672 113.173C26.0306 113.342 25.3891 113.511 24.7477 113.68C24.562 113.73 24.4945 113.967 24.6296 114.102C25.406 114.844 25.5579 115.891 25.5917 116.92C25.6086 117.461 25.8955 120.077 25.271 120.246C25.1191 120.296 25.0347 120.482 25.1191 120.617C26.9927 123.622 26.1318 127.183 25.6086 130.424C25.0684 133.766 25.0009 137.142 25.3891 140.484C25.4229 140.805 25.9293 140.805 25.8955 140.484C25.4567 136.72 25.6761 133.024 26.3175 129.31C26.8408 126.306 27.2628 123.082 25.5748 120.347C25.5242 120.465 25.4735 120.6 25.4229 120.718C25.8787 120.6 26.0306 120.246 26.0981 119.807C26.2162 118.997 26.1318 118.102 26.115 117.292C26.0981 116.009 25.9631 114.676 24.984 113.747C24.9503 113.882 24.9165 114.034 24.8659 114.169L26.7902 113.663C26.8914 113.629 26.9758 113.528 26.9758 113.426C26.8577 108.7 24.1232 104.548 23.8362 99.8552C23.8193 99.6695 23.6337 99.5345 23.448 99.6358C20.9329 101.037 19.4138 103.518 18.3672 106.134C17.0337 109.46 16.291 113.021 15.9197 116.583C15.9197 116.87 16.4261 116.87 16.4598 116.549Z" fill="#E8E8E8"/>
<path d="M22.5873 102.37C20.7812 109.206 19.8528 116.262 19.8359 123.335C19.8359 123.655 20.3423 123.655 20.3423 123.335C20.3592 116.296 21.2707 109.308 23.0599 102.505C23.1612 102.185 22.6717 102.05 22.5873 102.37Z" fill="#E8E8E8"/>
<path d="M220.771 92.2594C221.851 95.7366 222.662 99.2813 223.168 102.894C223.421 104.717 223.607 106.573 223.691 108.413C223.725 108.886 223.742 109.375 223.759 109.848C223.776 110.135 223.691 110.608 223.792 110.878C223.894 111.131 224.248 111.3 224.451 111.468C224.805 111.755 225.16 112.042 225.497 112.329C225.514 112.194 225.531 112.059 225.548 111.924C225.075 112.211 224.62 112.346 224.063 112.363C223.944 112.363 223.86 112.447 223.826 112.549C223.337 114.068 223.691 115.671 224.788 116.853C224.856 116.701 224.907 116.566 224.974 116.414C223.219 116.347 223.185 118.372 223.354 119.621C223.59 121.36 223.928 123.098 224.417 124.786C225.396 128.095 227.033 131.234 229.717 133.496C229.97 133.699 230.325 133.344 230.072 133.142C227.81 131.234 226.291 128.669 225.312 125.884C224.856 124.567 224.501 123.217 224.231 121.866C224.012 120.735 222.915 116.853 224.974 116.92C225.21 116.937 225.295 116.65 225.16 116.482C224.198 115.435 223.894 114.017 224.333 112.684C224.248 112.751 224.164 112.802 224.096 112.869C224.738 112.869 225.278 112.717 225.835 112.363C225.953 112.279 226.021 112.076 225.886 111.958C225.261 111.451 224.4 111.013 224.299 110.169C224.198 109.274 224.231 108.346 224.164 107.451C224.046 105.78 223.877 104.109 223.624 102.438C223.117 98.9437 222.324 95.5003 221.277 92.1243C221.159 91.8036 220.67 91.9387 220.771 92.2594Z" fill="#E8E8E8"/>
<path d="M221.598 93.0189C220.905 92.1074 222.205 91.4323 222.965 91.6179C223.724 91.8205 224.349 92.4281 224.872 92.9683C225.834 93.9473 226.594 95.0951 227.252 96.2936C228.619 98.758 229.767 101.391 230.78 104.008C232.856 109.392 234.291 115.03 235.051 120.735C235.473 123.976 235.692 127.234 235.692 130.492C235.692 130.812 236.198 130.812 236.198 130.492C236.198 123.706 235.27 116.937 233.447 110.422C232.552 107.248 231.455 104.143 230.156 101.104C228.957 98.3022 227.674 95.2977 225.615 93.002C224.788 92.0737 223.387 90.6389 222.003 91.1284C221.159 91.4154 220.602 92.4957 221.176 93.2721C221.361 93.5253 221.8 93.289 221.598 93.0189Z" fill="#E8E8E8"/>
<path d="M233.751 111.57C234.612 108.683 235.608 105.864 236.739 103.079C237.33 101.644 237.954 100.21 238.63 98.8087C238.95 98.1504 239.271 97.4752 239.609 96.8169C239.828 96.3949 240.486 94.5381 241.178 94.7069C241.381 94.7576 241.516 94.5888 241.482 94.4031C241.313 93.3566 242.495 92.4619 243.12 91.7699C243.677 91.1622 244.217 90.5545 244.774 89.9469C245.922 88.6978 247.052 87.4487 248.2 86.1827C248.065 86.149 247.913 86.1152 247.778 86.0646C249.517 90.3689 249.061 95.0783 248.048 99.5007C247.525 101.763 246.867 104.008 246.31 106.269C245.922 107.839 245.5 110.219 243.575 110.557C243.44 110.574 243.373 110.743 243.406 110.861C243.896 112.869 242.546 114.726 241.651 116.414C240.807 118.001 240.031 119.638 239.322 121.309C237.937 124.567 236.84 127.926 236.013 131.353C235.929 131.673 236.418 131.808 236.503 131.488C237.414 127.69 238.663 123.993 240.267 120.431C241.026 118.743 241.87 117.089 242.765 115.469C243.575 114 244.318 112.447 243.913 110.743C243.862 110.844 243.795 110.945 243.744 111.046C245.381 110.759 246.09 109.105 246.512 107.654C247.204 105.223 247.829 102.725 248.42 100.26C249.551 95.5678 250.158 90.5208 248.302 85.9295C248.234 85.7607 248.015 85.6594 247.88 85.8114C246.445 87.3812 245.01 88.9678 243.575 90.5377C242.9 91.2804 242.174 91.9893 241.55 92.7826C241.145 93.3228 240.925 93.8292 241.026 94.5044C241.128 94.4031 241.229 94.3018 241.33 94.2005C240.115 93.8967 239.524 95.8885 239.119 96.6818C238.309 98.2854 237.549 99.9058 236.857 101.543C235.473 104.75 234.291 108.059 233.296 111.401C233.161 111.738 233.65 111.873 233.751 111.57Z" fill="#E8E8E8"/>
<path d="M246.951 90.5545C241.685 100.378 236.317 110.506 235.051 121.731C235.017 122.052 235.524 122.052 235.557 121.731C236.823 110.591 242.174 100.53 247.39 90.8077C247.559 90.5208 247.12 90.2676 246.951 90.5545Z" fill="#E8E8E8"/>
<path d="M224.991 97.3064C229.092 108.16 231.54 119.604 232.266 131.184C232.283 131.504 232.789 131.504 232.772 131.184C232.046 119.554 229.599 108.076 225.48 97.1713C225.362 96.8844 224.873 97.0025 224.991 97.3064Z" fill="#E8E8E8"/>
<path d="M11.6998 91.8711C21.9963 90.0312 32.6305 90.1325 42.8933 92.175C47.9741 93.1877 52.9535 94.6563 57.7474 96.5805C62.7606 98.5892 67.5713 101.003 72.4833 103.231C91.0171 111.637 110.851 117.14 131.056 119.537C142.517 120.904 154.096 121.259 165.608 120.617C165.929 120.6 165.929 120.094 165.608 120.111C144.947 121.275 124.135 119.165 104.116 113.916C94.0723 111.283 84.2315 107.856 74.7283 103.687C69.7994 101.526 64.9887 99.0956 60.043 96.9856C55.3167 94.977 50.4385 93.3565 45.4421 92.2087C34.3522 89.6768 22.7728 89.3898 11.5647 91.3985C11.244 91.4322 11.3791 91.9218 11.6998 91.8711Z" fill="#E8E8E8"/>
<path d="M103.525 113.545C113.129 114.034 122.396 110.574 131.427 107.805C140.88 104.919 150.366 102.117 159.869 99.3826C169.322 96.6649 178.774 93.8123 188.379 91.6348C197.95 89.4742 207.706 88.4446 217.513 88.1576C228.434 87.82 239.355 88.3095 250.259 88.8159C250.58 88.8328 250.58 88.3264 250.259 88.3095C231 87.4318 211.487 86.5709 192.447 90.2676C182.792 92.1412 173.339 95.0107 163.886 97.6946C154.383 100.412 144.897 103.197 135.427 106.05C130.178 107.637 124.945 109.358 119.662 110.81C114.395 112.262 108.994 113.308 103.508 113.038C103.204 113.021 103.204 113.528 103.525 113.545Z" fill="#E8E8E8"/>
<path d="M62.5409 96.2261C69.2084 98.1504 76.129 96.8169 82.7796 95.534C89.9028 94.1668 97.0935 93.2384 104.352 92.9514C118.733 92.4113 133.03 94.4706 147.361 95.0445C155.294 95.3652 163.262 95.1795 171.094 93.8798C171.414 93.8292 171.279 93.3397 170.959 93.3903C156.864 95.7366 142.55 94.3356 128.405 93.2722C121.333 92.732 114.243 92.2763 107.137 92.3944C100.098 92.5126 93.0593 93.1878 86.1049 94.42C78.4078 95.7703 70.4068 97.9985 62.6591 95.7535C62.3552 95.6522 62.2202 96.1417 62.5409 96.2261Z" fill="#E8E8E8"/>
<path d="M92.4181 128.753C94.5787 127.858 96.9081 127.403 99.2544 127.47C101.432 127.538 103.39 128.247 105.5 128.686C107.07 129.023 108.639 129.023 109.905 127.909C110.395 127.487 110.817 127.048 111.526 127.268C112.049 127.42 112.488 127.774 112.977 127.994C113.551 128.264 114.142 128.365 114.75 128.247C116.202 127.96 117.299 126.761 118.565 126.069C120.708 124.921 122.768 126.457 124.861 127.014C129.216 128.179 133.874 127.825 138.331 127.774C143.817 127.723 149.319 127.757 154.771 127.082C155.092 127.048 155.092 126.542 154.771 126.576C149.876 127.166 144.931 127.2 140.002 127.251C135.309 127.301 130.347 127.74 125.722 126.694C124.641 126.457 123.629 126.103 122.599 125.681C121.704 125.31 120.776 124.955 119.797 125.09C118.261 125.293 117.113 126.508 115.813 127.251C115.138 127.639 114.395 127.909 113.619 127.69C112.775 127.436 112.083 126.694 111.154 126.66C110.277 126.643 109.855 127.352 109.213 127.808C108.319 128.432 107.188 128.449 106.141 128.28C103.913 127.926 101.837 127.065 99.5582 126.964C97.0769 126.846 94.5956 127.301 92.2831 128.264C91.9792 128.382 92.1143 128.871 92.4181 128.753Z" fill="#E8E8E8"/>
<path d="M103.187 113.696C103.491 113.747 103.778 113.815 104.082 113.865C104.402 113.933 104.521 113.494 104.217 113.376C104.031 113.308 103.845 113.241 103.643 113.173C103.373 113.072 103.187 113.511 103.44 113.629C104.993 114.439 106.614 115.081 108.302 115.536C108.622 115.621 108.757 115.131 108.437 115.047C106.783 114.608 105.213 113.983 103.694 113.19C103.626 113.342 103.559 113.494 103.491 113.646C103.677 113.713 103.862 113.781 104.065 113.848C104.116 113.68 104.149 113.528 104.2 113.359C103.896 113.308 103.609 113.241 103.305 113.19C103.001 113.139 102.866 113.629 103.187 113.696Z" fill="#E8E8E8"/>
<path d="M80.501 137.092C80.1297 136.653 79.7921 136.197 79.5051 135.691C79.3701 135.437 79.2013 135.167 79.1169 134.88C78.9987 134.695 78.9819 134.475 79.0494 134.256C78.9987 134.02 79.0663 133.834 79.2351 133.699C79.4882 133.007 79.1844 132.281 79.0156 131.572C78.7624 130.458 78.5092 129.344 78.256 128.23C78.121 127.639 77.986 127.065 77.8678 126.474C77.8003 126.204 77.7496 125.951 77.6821 125.681C77.5809 125.208 77.4796 124.989 77.834 124.601C78.0028 124.246 78.256 124.179 78.5936 124.449L79.0494 124.905C79.2182 125.124 79.3363 125.377 79.4714 125.613C79.7077 126.052 79.944 126.491 80.1634 126.93C80.6867 127.977 81.1425 129.057 81.5307 130.154C82.2734 132.213 82.7798 134.34 83.0836 136.518C83.168 136.416 83.2524 136.298 83.3199 136.197C83.3537 136.231 83.3706 136.281 83.4043 136.315C83.4887 135.994 82.9992 135.859 82.9148 136.18C82.8473 136.484 82.9992 136.703 83.3199 136.703C83.5056 136.703 83.59 136.551 83.5562 136.383C83.168 133.598 82.4422 130.88 81.3281 128.297C80.8049 127.082 80.2478 125.732 79.4714 124.651C79.0494 124.061 78.2898 123.52 77.564 123.942C76.7369 124.415 77.1251 125.58 77.2939 126.306C77.6315 127.791 77.9691 129.276 78.2898 130.762C78.4417 131.471 78.7624 132.264 78.7962 132.99C78.8131 133.581 78.3236 133.851 78.408 134.442C78.5768 135.539 79.4039 136.653 80.0959 137.463C80.3491 137.682 80.7036 137.328 80.501 137.092Z" fill="#E8E8E8"/>
<path d="M82.0542 129.833C81.801 128.314 81.8348 126.761 82.1892 125.259C82.2736 124.871 82.3918 124.499 82.5268 124.128C82.7631 123.487 83.1007 123.554 83.4383 124.027C83.8772 124.651 84.2148 125.343 84.468 126.052C85.4976 128.989 85.0419 132.146 84.603 135.134C84.5524 135.454 85.0419 135.589 85.0925 135.269C85.6496 131.504 86.2235 127.234 83.9447 123.875C83.6915 123.504 83.3539 122.879 82.8307 122.963C82.2736 123.065 82.088 123.824 81.936 124.263C81.3284 126.103 81.2271 128.061 81.5478 129.952C81.6322 130.289 82.1217 130.154 82.0542 129.833Z" fill="#E8E8E8"/>
<path d="M82.9657 125.951C83.4721 128.584 83.6578 131.234 83.5734 133.901C83.5565 134.222 84.0629 134.222 84.0798 133.901C84.181 131.184 83.9616 128.483 83.4552 125.816C83.3877 125.495 82.9151 125.63 82.9657 125.951Z" fill="#E8E8E8"/>
<path d="M20.8825 89.9637C20.393 88.8834 19.2958 88.1238 18.6037 87.1786C17.8441 86.132 17.2027 85.0011 16.5782 83.8871C16.5275 84.0052 16.4769 84.1403 16.4262 84.2584C19.819 83.6507 21.7771 86.9929 22.4354 89.8118C22.5029 90.1325 22.9924 89.9975 22.9249 89.6768C22.1991 86.554 19.971 83.1275 16.2912 83.7689C16.1224 83.8027 16.0718 84.0052 16.1393 84.1403C16.7638 85.2712 17.3884 86.4021 18.1648 87.4318C18.8569 88.377 19.971 89.1704 20.4436 90.2169C20.5786 90.5207 21.0175 90.2676 20.8825 89.9637Z" fill="#E8E8E8"/>
<path d="M22.3508 87.2461C22.604 84.596 25.1359 82.9418 26.1149 80.5956C25.9968 80.6462 25.8617 80.6968 25.7436 80.7475C26.8745 81.4733 26.0305 84.1065 25.7098 85.1193C25.2372 86.6047 24.4607 87.9551 23.4648 89.1366C23.2623 89.3898 23.6167 89.7443 23.8193 89.4911C25.0684 88.0226 25.963 86.3177 26.4188 84.4441C26.7057 83.2625 27.2459 81.1188 25.9968 80.3086C25.8449 80.2073 25.6761 80.3255 25.6254 80.4605C24.6126 82.8912 22.1145 84.4779 21.8444 87.2461C21.8106 87.5668 22.317 87.5668 22.3508 87.2461Z" fill="#E8E8E8"/>
<path d="M172.242 94.9095C172.09 94.5212 171.938 94.133 171.786 93.7448C171.702 93.5591 171.634 93.3565 171.55 93.1709C171.449 93.0358 171.449 92.8839 171.533 92.732C171.685 92.867 171.989 92.7826 171.972 92.5463C171.888 91.7023 171.803 90.8415 171.719 89.9975C171.702 89.7949 171.499 89.0016 171.618 88.8497C172.141 88.1239 172.495 89.3223 172.546 89.508C173.002 91.0609 172.985 92.8501 172.968 94.4537C172.968 94.7744 173.474 94.7744 173.474 94.4537C173.491 93.1371 173.424 91.8374 173.238 90.5376C173.12 89.7105 172.985 88.5121 172.175 88.0226C171.651 87.7019 171.212 88.0395 171.111 88.5965C171.01 89.1366 171.179 89.7781 171.229 90.3013C171.297 91.044 171.381 91.7867 171.449 92.5294C171.601 92.4619 171.736 92.4113 171.888 92.3438C171.601 92.0737 171.162 92.1243 170.993 92.4957C170.875 92.7489 170.976 93.0189 171.061 93.2721C171.263 93.8629 171.533 94.4368 171.753 95.0276C171.871 95.3483 172.36 95.2133 172.242 94.9095Z" fill="#E8E8E8"/>
<path d="M173.373 92.1581C173.305 89.7949 173.795 87.4824 174.824 85.3387C174.689 85.3556 174.554 85.3725 174.419 85.3894C175.517 86.3009 174.791 88.7653 174.605 89.9469C174.352 91.5335 174.031 93.1202 173.626 94.6732C173.542 94.9939 174.031 95.1289 174.116 94.8082C174.605 92.9177 174.976 90.9934 175.246 89.0522C175.415 87.8032 175.905 85.9633 174.774 85.018C174.656 84.9167 174.453 84.9167 174.369 85.0686C173.305 87.2799 172.782 89.6768 172.85 92.1412C172.883 92.4788 173.39 92.4788 173.373 92.1581Z" fill="#E8E8E8"/>
<path d="M84.7884 143.827C85.8518 142.746 87.506 144.198 88.7382 144.13C89.329 144.097 89.8691 143.877 90.4093 143.692C91.1351 143.455 91.8272 143.371 92.5867 143.438C95.5913 143.692 98.5115 143.911 101.533 143.708C101.854 143.692 101.854 143.185 101.533 143.202C99.8956 143.303 98.2752 143.337 96.6379 143.27C94.9837 143.202 93.2619 142.797 91.6246 142.915C90.9663 142.966 90.3586 143.185 89.7341 143.388C88.8226 143.675 88.1305 143.624 87.2528 143.303C86.2906 142.949 85.2104 142.662 84.417 143.472C84.1976 143.708 84.552 144.063 84.7884 143.827Z" fill="#E8E8E8"/>
<path d="M52.9033 147.928C54.0848 146.645 56.161 146.561 57.4101 147.776C57.427 147.641 57.4439 147.506 57.4607 147.371C56.583 147.793 55.6884 147.979 54.7263 147.928C54.4055 147.911 54.4055 148.418 54.7263 148.435C55.7897 148.485 56.7687 148.283 57.7308 147.81C57.8827 147.743 57.8996 147.523 57.7815 147.405C56.3298 146.004 53.916 146.072 52.5488 147.557C52.3293 147.81 52.6838 148.165 52.9033 147.928Z" fill="#E8E8E8"/>
<path d="M5.85933 152.486C4.99847 152.418 4.13761 152.672 3.47931 153.262C3.07419 153.634 2.50029 154.326 3.02356 154.815C3.61434 155.355 5.03223 155.001 5.72429 154.933C6.99027 154.798 8.22248 154.562 9.45469 154.241C9.7754 154.157 9.64037 153.667 9.31965 153.752C7.83425 154.14 6.33196 154.393 4.79592 154.495C4.49208 154.511 4.17137 154.545 3.86754 154.545C3.10795 154.511 3.46243 153.938 3.83378 153.617C4.3908 153.11 5.11663 152.925 5.85933 152.992C6.19692 153.009 6.18004 152.503 5.85933 152.486Z" fill="#E8E8E8"/>
<path d="M29.9804 138.56C30.0142 138.425 30.1154 138.341 30.2505 138.341C30.3686 138.324 30.4868 138.307 30.5881 138.29C30.8581 138.256 31.1113 138.273 31.3814 138.307C31.9047 138.374 32.3773 138.56 32.8331 138.847C32.8499 138.695 32.8668 138.543 32.9006 138.391C32.276 138.611 31.6515 138.661 30.9932 138.56C30.6725 138.51 30.5374 138.999 30.8581 139.05C31.6008 139.168 32.3098 139.117 33.0356 138.881C33.2382 138.813 33.2888 138.543 33.1031 138.425C32.2254 137.868 31.0776 137.598 30.0479 137.885C29.4909 138.037 29.052 138.898 29.8454 139.067C30.1661 139.117 30.3011 138.628 29.9804 138.56Z" fill="#E8E8E8"/>
<path d="M43.957 22.479C39.9397 21.0611 37.0701 17.1619 36.6313 12.942C36.1755 8.58709 38.6231 4.4347 42.3028 2.20659C46.2695 -0.190315 51.9073 -0.207195 55.1651 3.42192C56.8362 5.2618 57.8658 7.77687 58.4735 10.1569C59.098 12.6044 59.1993 15.3221 57.7983 17.5333C56.3804 19.7445 53.8485 20.9767 51.4685 21.9051C48.9534 22.901 45.9319 23.6775 43.4675 22.1245C43.1975 21.9558 42.9443 22.3946 43.2143 22.5634C45.4256 23.9475 48.0925 23.5931 50.4557 22.8166C52.7682 22.057 55.2157 20.9936 57.005 19.2719C61.0054 15.4402 59.3681 9.11036 56.8699 4.90733C55.5533 2.67922 53.5784 1.0419 51.0634 0.366714C48.6664 -0.274712 46.1007 -0.0552767 43.822 0.873102C39.6359 2.59482 36.3612 6.61217 36.0911 11.2034C35.7873 16.2673 39.0451 21.2806 43.822 22.9685C44.1258 23.0867 44.2609 22.5972 43.957 22.479Z" fill="#E8E8E8"/>
<path d="M170.875 120.465C182.387 119.739 193.831 118.186 205.107 115.806C208.364 115.114 211.605 114.355 214.829 113.528C215.15 113.443 215.015 112.954 214.694 113.038C203.52 115.891 192.143 117.95 180.665 119.149C177.407 119.486 174.149 119.756 170.892 119.959C170.554 119.976 170.554 120.482 170.875 120.465Z" fill="#E8E8E8"/>
<path d="M144.492 132.652C145.977 132.905 147.496 132.889 148.965 132.534C149.876 132.315 150.534 131.96 151.48 132.264C152.071 132.45 152.628 132.517 153.235 132.399C153.91 132.264 154.535 131.926 155.109 131.555C155.733 131.133 156.358 130.542 157.118 130.39C157.995 130.222 158.789 130.914 159.633 131.099C160.24 131.234 160.865 131.218 161.472 131.116C161.793 131.066 161.658 130.576 161.337 130.627C160.274 130.812 159.447 130.542 158.485 130.12C158.08 129.935 157.691 129.833 157.236 129.867C155.868 130.019 154.923 131.302 153.657 131.758C152.847 132.045 152.189 131.943 151.395 131.69C150.788 131.504 150.349 131.606 149.758 131.791C148.087 132.315 146.382 132.467 144.66 132.18C144.323 132.112 144.171 132.602 144.492 132.652Z" fill="#E8E8E8"/>
<path d="M60.8533 154.613H100.2C100.858 154.613 100.858 153.6 100.2 153.6C87.0843 153.6 73.9688 153.6 60.8533 153.6C60.195 153.6 60.195 154.613 60.8533 154.613Z" fill="#161616"/>
<path d="M103.019 154.309H107.627C108.285 154.309 108.285 153.296 107.627 153.296C106.091 153.296 104.555 153.296 103.019 153.296C102.36 153.296 102.36 154.309 103.019 154.309Z" fill="#161616"/>
<path d="M111.036 154.157H112.522C113.18 154.157 113.18 153.144 112.522 153.144C112.032 153.144 111.526 153.144 111.036 153.144C110.378 153.144 110.378 154.157 111.036 154.157Z" fill="#161616"/>
<path d="M18.5362 158.326H47.6367C48.295 158.326 48.295 157.313 47.6367 157.313C37.9309 157.313 28.242 157.313 18.5362 157.313C17.8948 157.313 17.8948 158.326 18.5362 158.326Z" fill="#161616"/>
<path d="M50.4552 158.326H58.0341C58.6924 158.326 58.6924 157.313 58.0341 157.313C55.5022 157.313 52.9871 157.313 50.4552 157.313C49.8138 157.313 49.8138 158.326 50.4552 158.326Z" fill="#161616"/>
<path d="M62.3387 158.022H62.7776C63.0477 158.022 63.3009 157.786 63.284 157.516C63.2671 157.246 63.0646 157.01 62.7776 157.01C62.6257 157.01 62.4738 157.01 62.3387 157.01C62.0687 157.01 61.8155 157.246 61.8323 157.516C61.8492 157.786 62.0518 158.022 62.3387 158.022Z" fill="#161616"/>
<path d="M13.202 158.461H14.2485C14.9068 158.461 14.9068 157.448 14.2485 157.448C13.894 157.448 13.5565 157.448 13.202 157.448C12.5437 157.448 12.5437 158.461 13.202 158.461Z" fill="#161616"/>
<path d="M146.956 139.911H187.788C188.446 139.911 188.446 138.898 187.788 138.898C174.183 138.898 160.578 138.898 146.956 138.898C146.298 138.898 146.298 139.911 146.956 139.911Z" fill="#161616"/>
<path d="M193.122 139.32H230.089C230.747 139.32 230.747 138.307 230.089 138.307C217.766 138.307 205.444 138.307 193.122 138.307C192.481 138.307 192.481 139.32 193.122 139.32Z" fill="#161616"/>
<path d="M233.363 139.016H236.334C236.992 139.016 236.992 138.003 236.334 138.003C235.338 138.003 234.359 138.003 233.363 138.003C232.705 138.003 232.705 139.016 233.363 139.016Z" fill="#161616"/>
<path d="M220.298 133.378H228.755C229.413 133.378 229.413 132.365 228.755 132.365C225.936 132.365 223.117 132.365 220.298 132.365C219.64 132.365 219.64 133.378 220.298 133.378Z" fill="#161616"/>
<path d="M231.574 133.226H233.65C234.308 133.226 234.308 132.213 233.65 132.213C232.958 132.213 232.266 132.213 231.574 132.213C230.932 132.213 230.932 133.226 231.574 133.226Z" fill="#161616"/>
<path d="M138.786 142.881H149.623C150.281 142.881 150.281 141.869 149.623 141.869C146.011 141.869 142.398 141.869 138.786 141.869C138.145 141.869 138.145 142.881 138.786 142.881Z" fill="#161616"/>
<path d="M153.489 142.729H158.097C158.755 142.729 158.755 141.717 158.097 141.717C156.561 141.717 155.025 141.717 153.489 141.717C152.83 141.717 152.83 142.729 153.489 142.729Z" fill="#161616"/>
<path d="M160.173 145.261H163.296C163.954 145.261 163.954 144.249 163.296 144.249C162.249 144.249 161.219 144.249 160.173 144.249C159.515 144.249 159.515 145.261 160.173 145.261Z" fill="#161616"/>
<path d="M88.283 60.627C87.6753 59.8674 89.9709 59.3947 90.3423 59.2428C91.0681 58.9221 91.5239 58.3313 91.6926 57.5549C91.8614 56.7615 91.6927 55.9175 91.929 55.1411C92.2834 53.9933 93.6001 54.0608 94.5791 54.1114C95.2374 54.1452 95.2205 53.1324 94.5791 53.0986C93.465 53.0311 92.1822 53.0649 91.4057 53.9764C90.7136 54.7866 90.8487 55.8838 90.7643 56.8797C90.6967 57.7743 90.3592 58.2132 89.4814 58.4664C88.975 58.6183 88.4686 58.7027 88.0467 59.0234C87.2702 59.5804 86.9495 60.5594 87.574 61.3359C87.9623 61.8592 88.6881 61.1333 88.283 60.627Z" fill="#161616"/>
<path d="M91.8779 61.4709C91.4222 60.9308 92.4687 60.3906 92.8063 60.1881C93.262 59.918 93.6503 59.6648 93.9879 59.2597C94.6799 58.4326 95.1357 56.8628 96.3848 56.7953C97.0262 56.7615 97.0431 55.7487 96.3848 55.7825C94.3086 55.8838 94.1398 58.0444 92.7219 59.0571C92.1142 59.4791 91.3884 59.7155 91.0002 60.3906C90.6457 60.9983 90.7132 61.6566 91.1521 62.1799C91.5741 62.6863 92.2999 61.9604 91.8779 61.4709Z" fill="#161616"/>
<path d="M170.976 6.83162C170.908 7.91192 170.064 9.21165 171.077 10.1231C171.955 10.8996 173.052 10.3257 174.048 10.3932C175.145 10.4776 174.672 11.4904 174.537 12.2331C174.436 12.7901 174.385 13.3978 174.639 13.9379C175.044 14.7819 176.141 15.3221 176.951 14.7144C177.458 14.3262 176.951 13.4484 176.445 13.8367C175.618 14.4612 175.449 12.9589 175.533 12.5032C175.618 12.0137 175.786 11.5242 175.803 11.0178C175.82 10.3088 175.449 9.75179 174.791 9.51548C173.98 9.22852 173.254 9.54924 172.444 9.53236C170.976 9.4986 171.955 7.70936 172.005 6.83162C172.039 6.17331 171.026 6.17331 170.976 6.83162Z" fill="#161616"/>
<path d="M176.782 7.9963C176.36 8.9078 175.955 9.9881 176.63 10.8996C176.884 11.2372 177.221 11.4397 177.626 11.5073C177.896 11.541 178.251 11.4229 178.487 11.5241C178.875 11.6761 179.095 12.1318 178.909 12.5369C178.622 13.1277 179.5 13.6341 179.787 13.0433C180.141 12.2837 180.006 11.406 179.331 10.849C178.96 10.5451 178.622 10.5451 178.166 10.4945C176.934 10.3763 177.272 9.34668 177.66 8.51957C177.93 7.92879 177.052 7.40552 176.782 7.9963Z" fill="#161616"/>
<path d="M230.578 43.0046C230.207 42.0425 231.101 40.6584 232.232 41.0128C233.093 41.2998 233.481 42.5826 232.907 43.2916C232.502 43.798 233.211 44.5069 233.616 44.0005C234.663 42.7346 234.139 40.5233 232.502 40.0338C230.696 39.4937 228.957 41.553 229.616 43.2578C229.835 43.8824 230.814 43.6123 230.578 43.0046Z" fill="#161616"/>
<path d="M33.5256 83.0768C33.4244 81.8784 34.9435 81.2032 35.585 82.3341C36.1251 83.3132 35.0617 84.174 34.1333 83.8533C33.5256 83.6339 33.2556 84.6129 33.8632 84.8323C35.7369 85.5075 37.5092 83.3807 36.3783 81.6927C35.163 79.8866 32.3441 80.95 32.5297 83.0768C32.5635 83.7183 33.5763 83.7351 33.5256 83.0768Z" fill="#161616"/>
<path d="M39.399 35.7633C39.0108 36.4047 38.977 37.2318 39.4834 37.8226C39.7366 38.1096 40.0911 38.2952 40.4624 38.3627C40.9857 38.4471 41.3739 38.1602 41.8297 38.3796C42.2854 38.6159 42.1842 38.9029 42.2348 39.3755C42.2517 39.6625 42.2686 39.9325 42.3023 40.2195C42.3361 40.5233 42.3698 40.8272 42.5893 41.0635C42.7918 41.2829 43.045 41.3673 43.332 41.418C43.5345 41.4517 43.7371 41.4348 43.9565 41.4348C44.1253 41.4348 44.311 41.4348 44.4798 41.4686C44.8005 41.553 44.9355 41.7724 44.9018 42.0931C44.6486 42.2788 44.8849 42.7177 45.155 42.532C45.6614 42.1607 45.4926 41.5867 45.0537 41.2154C44.8511 41.0466 44.6317 40.9622 44.3616 40.9284C43.4839 40.8103 42.9775 41.1479 42.7749 39.9157C42.6737 39.308 42.8931 38.042 42.2686 37.6369C41.9816 37.4512 41.7284 37.5356 41.4415 37.6538C40.9857 37.8395 40.6144 37.9914 40.1417 37.7044C39.5003 37.3162 39.4834 36.5566 39.8379 35.9827C40.0067 35.7464 39.5678 35.4932 39.399 35.7633Z" fill="#EC615B"/>
<path d="M46.2185 37.7719C45.8809 38.3627 45.4758 39.2573 45.999 39.865C46.3366 40.2701 46.9105 40.2195 47.3494 40.4727C48.0415 40.8609 48.3622 41.6711 48.2271 42.4307C48.1765 42.7514 48.666 42.8865 48.7166 42.5658C48.8517 41.8062 48.6829 41.0635 48.1596 40.4896C47.9402 40.2364 47.6532 40.0507 47.3494 39.9157C46.9949 39.7637 46.3873 39.5781 46.2691 39.1392C46.1847 38.8185 46.5223 38.2783 46.6573 38.0251C46.8092 37.7382 46.3704 37.485 46.2185 37.7719Z" fill="#EC615B"/>
<path d="M141.234 91.0778C140.66 89.8962 141.74 88.5121 143.023 88.9678C144.357 89.4405 144.306 91.2635 143.04 91.7698C142.736 91.888 142.871 92.3775 143.175 92.2594C144.812 91.6011 145.032 89.2548 143.327 88.5458C141.571 87.8031 140.019 89.7105 140.812 91.3479C140.947 91.6348 141.386 91.3647 141.234 91.0778Z" fill="#EC615B"/>
<path d="M79.0664 87.0773C77.9861 86.8579 79.7247 85.6932 79.9104 85.575C80.1805 85.3894 80.4337 85.1868 80.5687 84.8661C81.0245 83.8364 80.1974 81.7771 82.0204 81.6758C82.3411 81.659 82.3411 81.1526 82.0204 81.1695C81.3114 81.2032 80.7881 81.5914 80.4674 82.1991C79.9442 83.1781 80.5687 84.5116 79.5559 85.1868C78.982 85.575 78.3744 85.8282 78.3068 86.5878C78.2731 87.0436 78.4588 87.4487 78.9314 87.55C79.2521 87.6343 79.3871 87.1448 79.0664 87.0773Z" fill="#EC615B"/>
<path d="M82.3071 85.6088C81.8345 84.9505 82.1046 84.0221 82.8979 83.7689C83.4381 83.6001 83.8432 83.6845 84.147 83.1275C84.4508 82.5536 84.4002 81.8784 84.7378 81.2876C85.1598 80.528 85.8687 80.0048 86.6789 79.7516C86.9828 79.6503 86.8646 79.1608 86.5439 79.2621C85.7843 79.4984 85.126 79.9204 84.6365 80.5449C84.3833 80.8656 84.1639 81.237 84.0288 81.6421C83.8432 82.1822 83.9276 82.9081 83.3199 83.195C82.9485 83.3807 82.5772 83.2794 82.2227 83.5495C81.9864 83.7183 81.8176 83.9715 81.7163 84.2247C81.48 84.7817 81.5307 85.3725 81.8851 85.862C82.0539 86.1321 82.4928 85.8789 82.3071 85.6088Z" fill="#EC615B"/>
<path d="M65.1405 7.97942C64.8367 7.37175 66.1364 7.59119 66.1871 7.60807C66.3727 7.67559 66.5584 7.82751 66.7272 7.92878C66.9973 8.0807 67.3011 8.23262 67.6218 8.24949C68.0438 8.26637 68.3983 8.0807 68.6684 7.77686C69.4448 6.83161 69.1579 4.38406 70.9809 5.10988C71.521 5.32932 72.1287 5.65003 72.7195 5.37996C73.1921 5.16052 73.2934 4.6879 73.2259 4.21527C73.1921 3.97895 72.922 3.50632 72.9895 3.27001C73.1246 2.81426 73.5466 2.7805 73.8673 2.93241C74.0192 2.99993 74.1542 3.10121 74.323 3.15185C74.8294 3.33753 75.3189 3.30377 75.6228 2.83114C75.7916 2.56106 75.3527 2.30787 75.1839 2.57794C74.8463 3.11809 73.4959 2.00404 72.8883 2.34163C72.3988 2.59482 72.4156 3.10121 72.5338 3.57384C72.6688 4.13087 73.0064 4.94109 71.9768 4.92421C71.521 4.92421 71.099 4.53598 70.6602 4.45158C70.1369 4.3503 69.6643 4.48534 69.3267 4.89045C68.4827 5.88635 68.8034 8.48581 66.8454 7.42239C66.2715 7.11856 65.7988 6.81473 65.1574 7.10168C64.6679 7.32111 64.4316 7.74311 64.6848 8.23261C64.8536 8.51957 65.2756 8.26637 65.1405 7.97942Z" fill="#5222D0"/>
<path d="M85.2442 21.7532C84.4846 21.5675 84.3834 20.5885 84.7547 20.0146C85.278 19.2044 86.5102 19.255 87.3373 19.4069C88.7214 19.6601 90.0043 20.2003 91.4053 19.677C92.7557 19.1706 93.7684 18.0734 95.2876 18.0397C96.8743 18.0059 98.3766 18.698 99.9801 18.6474C102.782 18.563 105.331 17.1788 108.015 16.5374C109.602 16.1492 111.154 16.1154 112.741 16.5205C114.26 16.9087 115.678 17.5333 117.197 17.9046C118.784 18.3098 120.354 18.2422 121.957 18.1072C123.713 17.9722 125.519 17.8371 127.106 18.7486C127.072 18.6473 127.021 18.563 126.988 18.4617C126.144 20.943 123.409 21.9558 120.995 22.0908C117.974 22.2596 115.037 21.1624 111.998 21.2806C108.926 21.3987 106.327 23.2724 103.305 23.5593C100.216 23.8632 97.2963 22.3946 94.2242 22.479C91.1014 22.5634 87.0335 24.2683 84.569 21.4831C84.3496 21.2468 83.9951 21.6013 84.2146 21.8376C86.1557 24.0151 89.2278 23.6268 91.8104 23.2386C93.7178 22.9517 95.4564 22.9348 97.3638 23.3061C98.9842 23.6268 100.605 24.0657 102.259 24.0995C105.601 24.1839 108.42 22.0233 111.711 21.8038C115.037 21.5844 118.261 22.9179 121.586 22.5465C124.067 22.2765 126.65 21.1118 127.494 18.5798C127.528 18.4786 127.477 18.3435 127.376 18.2929C124.405 16.5543 120.826 18.1916 117.636 17.4658C115.881 17.0607 114.243 16.2842 112.471 15.9129C110.935 15.5753 109.416 15.6597 107.897 16.031C106.276 16.4192 104.74 17.0607 103.153 17.5502C101.331 18.1072 99.5919 18.276 97.7014 17.8878C96.1991 17.5671 94.815 17.3139 93.3971 18.0228C92.7388 18.3604 92.1311 18.8161 91.4559 19.12C90.3081 19.6264 89.2109 19.3225 88.0462 19.0356C86.814 18.7486 84.9573 18.5461 84.2652 19.9133C83.8263 20.7742 84.1302 22.0064 85.1429 22.2427C85.4299 22.3102 85.5649 21.8207 85.2442 21.7532Z" fill="#E8E8E8"/>
<path d="M14.9579 47.7647C17.2535 47.4609 19.431 48.6424 21.7097 48.3555C22.6381 48.2373 23.499 47.8322 24.3598 47.4777C24.7649 47.3089 25.1869 47.157 25.6258 47.0557C26.4529 46.8701 27.1956 47.0895 28.0058 47.2583C30.2677 47.7478 32.7996 47.2077 35.0615 46.8869C36.1756 46.735 37.2727 46.5662 38.3868 46.3806C39.6527 46.1611 40.9187 45.8235 42.1847 45.6885C43.5182 45.5535 45.088 46.1442 44.5478 47.7816C44.0921 49.1826 42.3872 49.5877 41.1044 49.689C38.8763 49.8578 36.6651 49.2163 34.4369 49.6383C32.3608 50.0266 30.504 51.1068 28.4953 51.6976C27.3813 52.0352 26.2672 52.1703 25.1194 52.0183C23.9716 51.8495 22.8913 51.5626 21.7097 51.647C19.3128 51.7989 16.764 53.1999 14.3671 52.6429C12.8986 52.3053 12.139 50.9549 12.8479 49.5539C13.54 48.2036 15.1267 47.8491 16.5108 47.8491C16.8315 47.8491 16.8315 47.3427 16.5108 47.3427C14.5696 47.3427 12.274 48.1867 12.0715 50.4148C11.8858 52.4741 13.9113 53.3181 15.6499 53.2506C16.9159 53.1999 18.165 52.8286 19.3972 52.5416C21.0008 52.1703 22.4693 52.0352 24.0897 52.3391C25.2882 52.5585 26.4023 52.6767 27.6176 52.4403C28.8667 52.204 30.0482 51.6976 31.2129 51.225C32.3945 50.7524 33.593 50.2629 34.8589 50.0772C36.3443 49.8578 37.8298 50.0941 39.3152 50.1785C41.2563 50.2966 44.3453 50.2122 45.0542 47.9166C45.3074 47.0895 45.1217 46.1274 44.3959 45.5872C43.687 45.0639 42.7248 45.0977 41.8977 45.199C38.8594 45.621 35.8717 46.313 32.7996 46.6506C31.0779 46.8363 29.4237 47.0557 27.7357 46.6506C26.3685 46.313 25.2882 46.5494 24.0053 47.0726C23.3302 47.3427 22.6719 47.6465 21.9629 47.7816C21.0852 47.9504 20.1737 47.8322 19.2959 47.6803C17.8612 47.4102 16.4602 47.0389 15.0085 47.2245C14.6372 47.2921 14.6372 47.7984 14.9579 47.7647Z" fill="#E8E8E8"/>
<path d="M220.636 67.8345C217.446 68.9486 213.715 66.3154 211.42 64.3236C211.386 64.4586 211.352 64.6105 211.301 64.7456C212.922 64.0873 214.627 64.0535 216.348 64.1548C218.053 64.2392 219.758 64.3574 221.463 64.408C225.092 64.5093 228.738 64.4249 232.35 64.1548C234.224 64.0198 236.081 63.8341 237.937 63.6146C238.849 63.4965 239.946 63.2771 240.807 63.699C242.005 64.3067 241.904 65.6233 240.756 66.1297C240.165 66.3829 239.524 66.4673 238.9 66.5855C237.921 66.7543 236.942 66.9399 235.962 67.1087C234.173 67.4294 232.384 67.7502 230.578 68.0709C229.548 68.2565 228.519 68.4422 227.489 68.6279C226.527 68.7967 225.531 69.0499 224.535 69.0668C222.847 69.0836 221.581 67.5982 219.893 67.7839C219.572 67.8177 219.572 68.3241 219.893 68.2903C220.855 68.1721 221.615 68.6954 222.442 69.0836C223.117 69.4044 223.775 69.5731 224.518 69.5731C226.459 69.5563 228.468 68.9655 230.375 68.611C232.435 68.2397 234.511 67.8683 236.57 67.497C237.549 67.3282 238.528 67.1425 239.507 66.9737C240.166 66.8555 240.858 66.7036 241.431 66.3154C242.394 65.6571 242.427 64.4417 241.617 63.6484C240.351 62.3993 238.174 63.0576 236.638 63.2264C232.485 63.6822 228.299 63.9185 224.113 63.9016C221.817 63.9016 219.522 63.8172 217.226 63.6653C215.184 63.5471 213.107 63.4458 211.183 64.2223C211.031 64.2898 210.913 64.5093 211.065 64.6443C213.496 66.7543 217.378 69.4719 220.771 68.2903C221.075 68.2228 220.956 67.7333 220.636 67.8345Z" fill="#E8E8E8"/>
<path d="M143.226 157.01C143.074 156.047 144.441 156.199 144.981 156.385C145.403 156.52 145.808 156.689 146.247 156.74C147.294 156.875 148.323 156.52 149.302 156.199C150.248 155.879 151.244 155.524 152.256 155.625C153.472 155.744 154.451 156.74 154.265 158.022C154.063 159.356 152.695 159.98 151.48 159.609C150.653 159.356 149.927 158.833 149.066 158.698C147.243 158.427 145.336 160.014 143.58 159.17C143.293 159.035 143.023 159.457 143.327 159.609C144.374 160.115 145.42 159.879 146.484 159.575C147.159 159.39 147.868 159.153 148.577 159.17C149.404 159.187 150.079 159.592 150.805 159.896C151.834 160.335 152.915 160.419 153.826 159.677C154.603 159.052 154.94 158.056 154.704 157.094C153.995 154.309 150.788 155.17 148.864 155.811C147.952 156.115 146.99 156.402 146.011 156.199C145.386 156.064 144.796 155.676 144.12 155.693C143.31 155.71 142.584 156.301 142.719 157.145C142.787 157.465 143.276 157.33 143.226 157.01Z" fill="#E8E8E8"/>
<path d="M123.763 151.389C124.574 150.629 125.688 150.308 126.785 150.545C127.241 150.646 128.507 150.984 127.713 151.591C127.291 151.912 126.363 151.878 125.857 151.878C125.536 151.878 125.536 152.385 125.857 152.385C126.599 152.385 127.899 152.351 128.456 151.76C128.929 151.254 128.388 150.697 127.933 150.443C126.481 149.599 124.607 149.92 123.409 151.034C123.173 151.254 123.527 151.608 123.763 151.389Z" fill="#E8E8E8"/>
<path d="M114.378 162.58C114.243 162.529 114.125 162.479 113.99 162.428C113.973 162.563 113.956 162.698 113.94 162.833C114.969 162.09 116.134 162.63 117.231 162.884C118.159 163.103 118.97 163.002 119.881 162.782C121.012 162.512 122.16 162.344 123.325 162.276C123.865 162.242 124.405 162.225 124.945 162.209C125.451 162.192 126.717 161.938 126.279 162.799C125.755 163.829 124.236 163.863 123.308 163.559C122.514 163.306 121.772 162.934 120.928 163.137C120.05 163.339 119.307 163.896 118.396 164.082C117.18 164.335 115.982 164.217 114.817 163.795C114.513 163.694 114.378 164.167 114.682 164.285C115.83 164.69 117.029 164.825 118.244 164.622C119.611 164.386 120.826 163.323 122.244 163.711C123.257 163.998 124.084 164.453 125.165 164.133C125.857 163.93 126.836 163.323 126.971 162.546C127.139 161.635 126.009 161.668 125.418 161.685C124.05 161.719 122.666 161.787 121.299 161.989C120.556 162.107 119.847 162.31 119.122 162.445C118.227 162.614 117.501 162.445 116.64 162.209C115.628 161.922 114.581 161.753 113.67 162.394C113.534 162.495 113.501 162.664 113.619 162.799C113.872 163.086 114.142 163.154 114.497 163.086C114.834 163.019 114.699 162.529 114.378 162.58Z" fill="#E8E8E8"/>
<path d="M184.091 152.908C185.07 152.503 186.1 152.283 187.163 152.3C188.26 152.317 189.189 152.739 190.235 152.975C191.771 153.347 192.919 152.401 194.168 151.676C196.143 150.511 198.101 151.271 200.161 151.693C201.629 151.996 203.199 152.047 204.465 151.152C204.735 150.967 204.482 150.528 204.212 150.713C202.625 151.861 200.667 151.304 198.928 150.882C197.291 150.494 195.671 150.275 194.135 151.119C193.459 151.49 192.835 151.979 192.126 152.3C191.046 152.79 190.168 152.401 189.121 152.098C187.416 151.608 185.61 151.743 183.973 152.418C183.652 152.536 183.787 153.026 184.091 152.908Z" fill="#E8E8E8"/>
<path d="M66.7274 69.7926C68.2297 69.2187 70.8629 72.3076 72.1626 74.3332C74.1544 77.3884 74.4752 80.0554 75.4542 86.2333C75.8255 88.6302 76.4332 92.4281 77.2603 97.222C78.7457 98.6736 79.3027 100.091 79.5222 100.969C79.826 102.1 79.9104 103.552 79.5222 103.687C79.1002 103.839 78.3575 102.421 78.0536 102.556C77.6485 102.742 78.9651 105.02 78.1718 106.067C77.3616 107.13 74.3232 106.961 72.7366 105.392C71.2511 103.923 71.8419 102.05 71.6056 97.5764C71.5212 96.0573 71.2849 91.9218 70.0189 87.8369C68.466 82.8574 66.8456 82.6042 65.9341 78.1986C65.2926 75.0928 65.107 70.4171 66.7274 69.7926Z" fill="white" stroke="#161616" stroke-width="0.178501" stroke-miterlimit="10"/>
<path opacity="0.15" d="M68.9553 74.1475C69.8837 73.945 71.5041 78.148 71.6054 78.3843C73.0908 82.2666 72.3819 83.9208 73.0402 89.643C73.5803 94.3018 73.8842 96.9519 75.3864 100.227C76.8381 103.366 78.526 105.206 77.8846 106.05C77.2432 106.911 74.7281 106.084 72.7532 105.29C72.5675 104.868 72.2975 104.21 72.078 103.4C71.521 101.425 71.5548 99.8552 71.5548 99.0956C71.5548 98.6736 71.5379 93.7785 70.5758 89.508C70.0525 87.2292 69.8162 87.5668 69.2085 85.2037C67.875 80.0723 67.9256 74.367 68.9553 74.1475Z" fill="#6D6C6C"/>
<path opacity="0.17" d="M71.2344 82.3173C71.42 84.0727 71.6564 86.6891 71.7576 89.8793C71.9096 94.7913 71.6732 98.8762 71.5382 98.8762C71.4201 98.8762 71.572 95.9391 70.9305 91.9218C70.5086 89.2548 69.884 87.0942 69.4114 85.6594C69.7321 85.3387 70.1203 84.8998 70.4748 84.2922C70.9137 83.5157 71.1331 82.8068 71.2344 82.3173Z" fill="#6D6C6C"/>
<path d="M70.0693 142.189C69.6304 143 69.5629 143.877 70.5757 151.524C70.6939 152.469 70.812 153.245 70.8795 153.786C73.4621 154.191 77.1081 154.511 81.4293 154.089C84.0456 153.836 87.1009 153.549 87.2697 152.553C87.4047 151.743 85.6323 150.291 77.5301 147.523C77.1588 144.822 76.7705 142.122 76.3992 139.421C71.656 139.742 70.4238 141.565 70.0693 142.189Z" fill="#161616"/>
<path d="M59.8913 94.0655C61.478 96.2261 63.7399 99.3319 66.39 103.13C72.6692 112.11 75.8088 116.6 76.906 119.604C80.1468 128.5 79.3029 137.142 78.9822 140.079C78.7965 141.767 78.5602 143.151 78.3745 144.097C77.0916 144.586 75.2518 145.126 73.0068 145.312C70.9981 145.481 69.2764 145.295 68.0104 145.076C67.6222 142.78 67.3015 140.197 67.1495 137.395C66.9301 133.226 67.1327 129.496 67.5209 126.306C63.1828 122.98 60.3808 119.554 58.676 117.174C54.1185 110.743 52.9031 105.172 52.1773 101.594C51.1477 96.6312 51.8566 95.2808 52.5149 94.5719C54.7093 92.2931 59.4693 93.9304 59.8913 94.0655Z" fill="white" stroke="#161616" stroke-width="0.178501" stroke-miterlimit="10"/>
<path opacity="0.19" d="M60.3805 108.312C62.1191 109.78 64.3809 111.958 66.5753 114.946C67.1829 115.79 69.698 119.385 71.9092 125.158C74.9476 133.159 75.2008 140.619 75.0657 144.839C74.323 145.109 73.2765 145.396 72.0274 145.498C70.3563 145.616 68.9891 145.329 68.1113 145.059C67.5712 141.767 67.1661 137.969 67.1323 133.749C67.1154 131.015 67.2336 128.466 67.453 126.137C67.031 125.9 58.8782 121.309 58.9795 113.629C58.9963 111.485 59.6715 109.662 60.3805 108.312Z" fill="#6D6C6C"/>
<path opacity="0.15" d="M62.5579 121.242C62.9293 120.735 67.5712 122.153 69.4111 125.597C70.7952 128.179 69.6811 130.171 69.7318 133.851C69.7655 136.602 70.4745 140.518 73.5297 145.261C71.7573 145.228 69.985 145.194 68.1957 145.16C67.7062 142.02 67.318 138.442 67.2167 134.509C67.1323 131.403 67.2336 128.534 67.4361 125.917C66.7778 125.58 65.9339 125.056 65.0392 124.28C64.0433 123.402 62.2879 121.613 62.5579 121.242Z" fill="#6D6C6C"/>
<path d="M40.2429 140.856C38.9601 141.683 38.7406 142.831 37.576 145.363C36.7657 147.118 35.5504 149.464 33.6768 152.131C34.7402 153.33 36.5125 155.001 39.112 156.233C42.6736 157.921 47.67 158.731 48.4464 157.263C49.2735 155.676 44.9355 151.912 43.6357 150.798C43.9902 150.005 44.5641 148.739 45.2731 147.203C47.1467 143.185 47.518 142.594 47.2142 141.869C46.5053 140.147 42.5723 139.37 40.2429 140.856Z" fill="#161616"/>
<path d="M45.6616 90.2507C44.6488 93.0358 43.6191 95.821 42.6064 98.5892C40.9353 103.417 41.6611 106.759 42.2012 108.363C42.792 110.135 43.8217 111.654 45.8641 114.675C47.4508 117.005 48.8856 118.879 49.9321 120.178C47.839 122.356 45.459 125.175 43.214 128.719C40.1926 133.513 38.4033 138.02 37.3062 141.548C38.302 142.307 39.8043 143.27 41.7793 143.995C43.9905 144.806 45.9485 144.991 47.282 145.008C49.6283 143.202 52.8354 140.383 55.8231 136.248C58.1694 133.024 61.3259 128.686 62.3386 122.609C64.0604 112.262 58.4394 103.839 56.4308 100.834C52.8016 95.3821 48.4467 92.0737 45.6616 90.2507Z" fill="white" stroke="#161616" stroke-width="0.178501" stroke-miterlimit="10"/>
<path d="M52.768 96.3273C54.0677 98.1335 55.3506 99.9565 56.5828 101.796C56.7347 101.712 56.8698 101.628 57.0217 101.543C55.9245 100.075 54.9455 98.5048 54.1015 96.8675C53.9833 96.9857 53.8652 97.1038 53.747 97.222C54.4391 97.6946 54.8273 98.4035 55.2493 99.0956C55.7388 99.9058 56.2452 100.716 56.7347 101.526C57.6969 103.096 58.659 104.683 59.6211 106.253C59.7731 106.168 59.9081 106.084 60.06 105.999C58.5915 103.704 57.123 101.408 55.6375 99.1125C55.4687 98.8424 55.0299 99.0956 55.1987 99.3657C57.0217 102.404 58.8615 105.425 60.6845 108.464C60.8533 108.751 61.2922 108.498 61.1234 108.211C59.7899 105.949 58.4733 103.67 57.1398 101.408C57.0048 101.509 56.8698 101.611 56.7347 101.712C58.6421 103.822 58.9797 106.894 61.0559 108.869C61.2922 109.088 61.6467 108.734 61.4104 108.514C59.3342 106.556 58.9966 103.467 57.0892 101.357C56.8866 101.138 56.549 101.425 56.6841 101.661C58.0176 103.923 59.3342 106.202 60.6677 108.464C60.8196 108.379 60.9546 108.295 61.1065 108.211C59.2835 105.172 57.4437 102.151 55.6207 99.1125C55.4687 99.1969 55.3337 99.2813 55.1818 99.3657C56.6503 101.661 58.1188 103.957 59.6043 106.253C59.7731 106.523 60.2119 106.269 60.0431 105.999C58.9628 104.227 57.8825 102.455 56.8022 100.699C56.0089 99.3826 55.2831 97.6777 53.9665 96.7831C53.747 96.6312 53.5107 96.9181 53.612 97.1376C54.456 98.7749 55.4181 100.328 56.5322 101.813C56.7178 102.066 57.1567 101.83 56.971 101.56C55.7388 99.7033 54.4728 97.8803 53.1562 96.091C53.0212 95.8041 52.5823 96.0573 52.768 96.3273Z" fill="white"/>
<path opacity="0.2" d="M53.8314 97.07C52.9537 98.336 51.7384 100.429 51.2151 103.18C49.6115 111.519 56.3634 115.216 54.8611 122.525C54.0678 126.373 52.0591 126.019 47.5691 134.02C45.2904 138.088 43.8387 141.666 42.9778 144.097C41.8807 143.759 40.6822 143.32 39.4162 142.746C38.6735 142.409 37.9815 142.071 37.3569 141.717C38.3528 138.611 39.8551 134.864 42.117 130.846C44.6827 126.306 47.5016 122.761 49.8816 120.144C49.2233 119.301 48.2443 118.018 47.1134 116.414C43.9906 111.992 42.4039 109.73 41.8807 107.13C41.2899 104.261 41.7794 101.813 42.117 100.159C42.6234 97.6608 43.4842 95.7028 44.1763 94.3693C47.3834 95.2639 50.6074 96.1754 53.8314 97.07Z" fill="#6D6C6C"/>
<path opacity="0.17" d="M49.8645 96.0404C47.9571 98.2179 45.4589 101.796 45.6614 106.118C45.9653 112.886 52.6496 115.469 51.6875 121.022C51.4174 122.558 49.2906 125.023 45.02 129.901C42.6737 132.585 40.6819 134.728 39.3147 136.163C40.3612 133.598 41.8804 130.525 44.0748 127.285C46.0159 124.415 48.0077 122.119 49.7801 120.313C49.2568 119.52 48.3284 118.102 47.1637 116.347C43.0957 110.236 42.3024 109.274 41.8466 107.147C41.3065 104.649 41.661 102.539 41.931 100.969C42.4205 98.0491 43.4502 95.8041 44.2267 94.3862C46.1003 94.9263 47.9908 95.4834 49.8645 96.0404Z" fill="#6D6C6C"/>
<path d="M58.5916 66.6698C56.1947 68.0877 51.6372 71.2105 48.16 76.9495C43.7376 84.2584 43.7376 91.3985 43.8895 94.1667C44.7166 94.4368 45.5606 94.7069 46.4214 94.9601C52.1774 96.6818 57.7477 97.8465 63.0141 98.5892C63.453 97.0869 63.9256 95.5678 64.432 93.9979C65.1916 91.6854 65.9849 89.4742 66.7951 87.3643C69.5972 85.9126 70.5762 84.039 70.8969 83.2625C72.1966 80.2242 70.9644 77.0508 69.6309 73.6242C68.8882 71.7 68.5 70.721 67.5716 69.6744C64.6683 66.3829 59.8745 66.5854 58.5916 66.6698Z" fill="#EC615B"/>
<path opacity="0.27" d="M64.2799 70.6703C59.6717 71.278 57.2073 73.3711 56.2114 74.3501C50.5905 79.9035 52.5316 89.2717 53.0549 91.8036C53.5275 94.0824 54.2365 95.9054 54.7935 97.1376C51.2319 96.1754 47.6872 95.1964 44.1256 94.2343C43.9061 91.6517 43.6867 85.018 47.5184 77.9455C51.08 71.3962 56.1945 68.0371 58.4733 66.7205C58.794 66.7374 59.1147 66.7711 59.4354 66.788C59.9249 67.3619 60.5157 67.9696 61.2415 68.5941C62.3218 69.5394 63.3852 70.1977 64.2799 70.6703Z" fill="#6D6C6C"/>
<path opacity="0.2" d="M49.5101 74.9071C49.0374 77.3884 48.6492 80.9838 49.1556 85.2374C49.7633 90.2338 51.3668 94.0992 52.6159 96.5299C49.7126 95.7872 46.7924 95.0445 43.8892 94.3187C43.7541 91.9893 43.8216 88.4952 44.9357 84.4779C46.151 80.0892 48.1091 76.882 49.5101 74.9071Z" fill="#6D6C6C"/>
<path d="M192.211 130.677C191.147 133.057 191.35 135.285 191.519 136.332C194.844 137.801 197.798 138.476 200.06 138.813C200.802 138.931 209.985 140.231 210.88 137.716C211.099 137.092 210.745 136.45 210.39 135.826C208.415 132.365 203.419 132.163 202.744 132.146C202.558 128.551 200.245 125.884 197.882 125.698C194.54 125.445 192.447 130.154 192.211 130.677Z" fill="#161616"/>
<path d="M196.599 72.6115C198.793 75.768 201.747 80.6799 203.891 87.1955C207.385 97.8127 206.811 106.725 206.423 111.772C206.085 116.262 205.174 122.643 202.625 130.002C201.933 130.441 198.878 132.264 195.012 131.437C192.717 130.947 191.164 129.732 190.421 129.057C191.788 126.052 193.442 121.529 194.067 115.891C194.759 109.747 193.915 104.936 192.801 98.758C190.269 84.7986 186.775 79.4984 189.796 75.5992C191.248 73.7087 193.729 72.8647 196.599 72.6115Z" fill="white" stroke="#161616" stroke-width="0.178501" stroke-miterlimit="10"/>
<path opacity="0.16" d="M197.797 80.3255C198.945 85.9126 199.857 92.3269 200.211 99.4501C200.819 112.093 199.452 122.997 197.679 131.488C196.92 131.589 195.08 131.707 193.122 130.728C191.957 130.137 191.164 129.361 190.708 128.821C192.818 123.959 193.578 119.824 193.881 117.039C194.354 112.667 193.966 109.156 193.24 102.607C192.818 98.7749 192.328 95.6353 191.974 93.4916C193.915 89.1198 195.856 84.7142 197.797 80.3255Z" fill="#6D6C6C"/>
<path opacity="0.22" d="M194.101 88.7315C195.553 92.5126 197.73 99.7202 196.987 108.886C196.279 117.714 193.173 124.28 191.198 127.757C194.506 118.203 194.675 112.346 194.169 108.717C194.034 107.789 193.46 104.109 192.801 98.6905C192.531 96.4455 192.329 94.6056 192.211 93.4241C192.852 91.8542 193.477 90.2844 194.101 88.7315Z" fill="#6D6C6C"/>
<path d="M167.785 123.368C166.384 124.061 165.962 125.191 164.038 128.854C162.755 131.285 161.675 133.226 160.966 134.475C163.127 136.028 166.553 138.071 171.128 139.151C173.828 139.792 179.449 140.687 180.091 139.151C180.8 137.446 175.027 133.513 172.596 131.926C175.094 129.496 175.212 125.968 173.525 124.162C172.09 122.626 169.49 122.525 167.785 123.368Z" fill="#161616"/>
<path d="M192.261 72.257C197.832 77.169 191.316 93.5422 185.965 106.641C183.653 112.295 180.041 120.482 174.724 130.053C173.795 130.188 171.01 130.458 168.039 128.854C165.051 127.251 163.752 124.736 163.364 123.909C164.916 121.225 166.79 117.613 168.579 113.207C169.288 111.468 172.343 103.704 174.065 92.732C174.74 88.3939 175.348 82.6717 175.264 75.8692C176.26 74.8565 181.813 69.4044 188.379 70.6534C189.375 70.8391 191.012 71.1598 192.261 72.257Z" fill="white" stroke="#161616" stroke-width="0.178501" stroke-miterlimit="10"/>
<path d="M194.067 79.0089C194.05 79.5996 194.033 80.1904 194.033 80.7812H194.54C194.455 79.836 194.506 78.9413 194.692 78.013C194.523 77.9961 194.354 77.9623 194.202 77.9454C194.303 79.9372 193.848 82.0303 193.493 83.9884C193.139 85.9633 192.666 87.9213 192.109 89.8456C192.278 89.8962 192.43 89.93 192.599 89.9806C193.527 86.4697 194.303 82.9418 194.945 79.3633C194.996 79.0426 194.506 78.9076 194.455 79.2283C193.814 82.7899 193.037 86.3346 192.109 89.8456C192.025 90.1663 192.514 90.3013 192.599 89.9806C193.189 87.9551 193.662 85.8789 194.033 83.8027C194.371 81.9122 194.81 79.8697 194.709 77.9454C194.692 77.6754 194.27 77.591 194.219 77.8779C194.017 78.8401 193.966 79.8022 194.05 80.7812C194.084 81.1019 194.557 81.1188 194.557 80.7812C194.574 80.1904 194.59 79.5996 194.59 79.0089C194.59 78.6882 194.084 78.6882 194.067 79.0089Z" fill="white"/>
<path d="M191.924 88.7822C191.94 90.0819 191.974 91.3816 191.991 92.6814C191.991 93.0021 192.497 93.0021 192.497 92.6814C192.481 91.3816 192.447 90.0819 192.43 88.7822C192.413 88.4446 191.907 88.4446 191.924 88.7822Z" fill="white"/>
<path opacity="0.19" d="M184.901 77.5066C184.952 80.8994 184.766 85.5244 183.77 90.8921C182.707 96.5805 181.086 100.986 178.723 107.62C176.799 113.055 175.871 114.675 173.913 120.702C172.714 124.364 171.87 127.436 171.33 129.496C170.402 129.378 168.477 128.989 166.553 127.555C164.764 126.221 163.852 124.634 163.447 123.807C166.553 118.355 168.528 113.578 169.777 110.101C173.643 99.3488 174.554 89.9975 175.077 84.2415C175.297 81.8446 175.415 79.8528 175.466 78.5531C178.605 78.1986 181.762 77.861 184.901 77.5066Z" fill="#6D6C6C"/>
<path opacity="0.24" d="M183.163 77.9961C181.846 83.7858 180.327 88.3433 179.129 91.5335C178.15 94.1668 176.647 97.7115 173.66 104.784C172.563 107.4 172.006 108.7 171.735 109.291C170.081 113.004 167.431 118.22 163.194 124.364C166.992 117.545 171.347 107.822 173.66 95.5678C174.824 89.3898 175.246 83.752 175.297 78.8738C175.28 78.8569 175.28 78.8569 183.163 77.9961Z" fill="#6D6C6C"/>
<path d="M188.496 36.4891C188.767 37.1474 189.239 38.1095 190.1 39.0886C190.725 39.7975 191.518 40.709 192.699 41.0635C194.995 41.7724 197.223 39.9494 197.527 39.6962C199.755 41.0128 201.983 42.3294 204.194 43.6461C204.397 46.3974 204.414 50.5498 203.334 55.3943C202.304 60.0024 201.308 60.5594 200.498 65.0325C199.266 71.7506 200.177 77.7429 199.873 77.7598C199.823 77.7598 199.755 77.6247 199.62 76.8989C190.927 77.5572 182.234 78.2155 173.541 78.8738C173.288 73.658 173.322 69.2693 173.423 66.0284C173.558 60.9645 173.963 54.8372 175.651 47.7309C176.85 42.6502 177.795 40.9284 179.23 39.5781C182.335 36.6241 186.589 36.4385 188.496 36.4891Z" fill="#003777"/>
<path opacity="0.3" d="M198.557 40.3039C198.27 43.3929 197.73 47.9841 196.701 53.4869C196.397 55.1411 195.536 59.6986 194.844 61.9267C194 64.6612 190.708 72.4764 174.605 78.8232C179.517 78.2493 184.581 77.7429 189.763 77.3209C193.004 77.0508 196.211 76.8145 199.368 76.6288C200.482 72.6621 201.511 68.1721 202.254 63.2095C203.385 55.6981 203.604 48.9125 203.419 43.1903C201.798 42.2282 200.178 41.266 198.557 40.3039Z" fill="#32198E"/>
<path d="M191.603 26.3276C191.012 29.349 190.742 32.6912 188.294 36.3878C187.957 36.8942 187.67 37.2824 187.467 37.5356C187.67 37.9407 189.814 42.0931 194.371 42.7177C196.971 43.0722 199.013 42.0763 199.789 41.6543C199.671 40.6415 199.604 39.4262 199.705 38.0589C199.84 36.0502 200.262 34.3791 200.684 33.1132C202.642 32.86 204.583 32.6068 206.541 32.3536C206.929 31.4927 207.301 30.6319 207.689 29.7541C208.229 29.7373 208.752 29.7204 209.293 29.7035C208.888 28.5219 208.28 26.6483 207.571 24.3358C206.254 19.9808 206.271 19.3563 205.562 18.3773C203.604 15.6934 199.216 13.9886 196.329 15.4233C193.544 16.7906 192.7 20.6898 191.603 26.3276Z" fill="white" stroke="#161616" stroke-width="0.178501" stroke-miterlimit="10"/>
<path d="M209.208 29.4672C208.246 29.4841 207.301 29.4165 206.356 29.2815C206.035 29.2309 205.9 29.7204 206.22 29.771C207.216 29.9229 208.195 29.9904 209.208 29.9736C209.546 29.9736 209.546 29.4672 209.208 29.4672Z" fill="#161616"/>
<path d="M209.883 21.7194C209.022 21.2468 207.993 21.5169 207.436 22.3102C207.25 22.5803 207.689 22.8335 207.875 22.5634C208.263 22.0064 209.039 21.8376 209.63 22.1583C209.917 22.3102 210.17 21.8713 209.883 21.7194Z" fill="#161616"/>
<path d="M209.444 24.7578C209.529 24.3695 209.512 23.9813 209.326 23.6268C209.191 23.3736 208.904 23.0698 208.583 23.2048C208.246 23.3399 208.263 23.8125 208.33 24.0995C208.398 24.4539 208.583 24.7746 208.853 25.011C209.005 25.146 209.292 25.0616 209.292 24.8253C209.292 24.4033 209.191 24.0319 209.005 23.6437C208.87 23.3568 208.431 23.61 208.566 23.8969C208.702 24.1839 208.769 24.4877 208.786 24.8084C208.938 24.7409 209.073 24.6902 209.225 24.6227C208.938 24.3864 208.837 24.0826 208.82 23.7281C208.837 23.6943 208.82 23.6606 208.769 23.6606C208.803 23.6775 208.837 23.7112 208.853 23.745C208.904 23.8125 208.955 23.9138 208.972 23.9982C209.039 24.2007 209.039 24.3864 208.988 24.589C208.87 24.9434 209.36 25.0785 209.444 24.7578Z" fill="#161616"/>
<path d="M204.988 22.3946C204.009 22.0739 202.98 22.479 202.406 23.323C202.22 23.5931 202.659 23.8463 202.845 23.5762C203.283 22.9179 204.094 22.6478 204.853 22.8841C205.157 22.9685 205.292 22.4959 204.988 22.3946Z" fill="#161616"/>
<path d="M205.258 25.2135C205.292 24.7578 205.107 24.0488 204.634 23.8632C204.009 23.61 204.009 24.4877 204.077 24.8591C204.161 25.2304 204.465 25.9225 204.971 25.6355C205.174 25.5174 205.208 25.2979 205.14 25.0954C205.022 24.7747 204.836 24.4877 204.701 24.1839C204.566 24.2851 204.431 24.3864 204.296 24.4877C204.364 24.5552 204.414 24.6227 204.431 24.724C204.516 25.0447 205.005 24.9097 204.921 24.589C204.87 24.4033 204.786 24.2683 204.651 24.1332C204.431 23.9307 204.128 24.1839 204.246 24.4371C204.313 24.5552 204.364 24.6734 204.431 24.8084C204.482 24.9097 204.533 25.0954 204.617 25.1798C204.651 25.2979 204.685 25.2979 204.735 25.1798C204.718 25.146 204.685 25.0954 204.668 25.0616C204.617 24.9603 204.583 24.8591 204.566 24.7409C204.55 24.6396 204.566 24.5046 204.533 24.4033C204.55 24.3358 204.533 24.3189 204.516 24.4033C204.55 24.4539 204.6 24.5046 204.617 24.5552C204.735 24.7578 204.769 24.9941 204.752 25.2304C204.718 25.5342 205.225 25.5342 205.258 25.2135Z" fill="#161616"/>
<path d="M206.237 19.4576C206.102 18.5629 205.748 17.1113 204.802 15.609C204.465 15.0857 203.739 13.9548 202.591 13.1952C200.397 11.7436 197.021 11.8617 194.557 13.6341C192.16 15.3727 190.961 18.4954 191.484 21.5844C196.413 20.8754 201.325 20.1665 206.237 19.4576Z" fill="#EC615B"/>
<path d="M214.306 17.8371C206.727 18.7993 199.165 19.7614 191.586 20.7235C190.623 20.8417 190.623 22.3609 191.586 22.2427C199.165 21.2806 206.727 20.3184 214.306 19.3563C215.251 19.2381 215.268 17.719 214.306 17.8371Z" fill="#161616"/>
<path d="M196.396 21.3818C197.73 21.8714 198.506 22.7997 199.418 23.9138C201.325 26.2432 200.751 27.104 202.102 28.5557C204.229 30.8682 206.389 29.5009 208.297 31.7628C209.917 33.6871 209.698 36.2865 209.63 36.8605C209.562 37.4344 209.276 39.7469 207.402 41.3336C205.781 42.7008 203.57 43.0215 203.435 42.7177C203.385 42.5995 203.57 42.3295 204.769 41.5192C204.414 41.7724 203.874 42.0763 203.148 42.2113C202.321 42.3632 201.545 42.2113 201.528 42.0931C201.528 42.0087 201.967 42.0087 202.304 41.6374C202.507 41.418 202.591 41.1648 202.642 40.9453C201.984 41.3842 201.14 41.7555 200.346 41.5192C198.186 40.8609 197.797 36.0165 197.662 34.4129C197.257 29.214 198.743 26.3782 196.937 24.5552C196.785 24.4033 196.059 23.6606 195.265 23.8125C194.253 23.9982 193.476 25.5849 193.814 26.6314C194.101 27.526 195.114 27.7792 195.046 27.948C194.945 28.1675 193.24 27.8299 191.805 26.682C191.282 26.2601 190.86 25.9225 190.64 25.2979C190.252 24.2176 190.708 22.9854 191.316 22.2596C192.582 20.7404 194.945 20.8417 196.396 21.3818Z" fill="#161616" stroke="#161616" stroke-width="0.178501" stroke-miterlimit="10"/>
<path opacity="0.22" d="M194.388 28.083C194.708 28.1168 195.164 28.1337 195.198 28.0155C195.215 27.9649 195.097 27.8805 195.097 27.8805C195.097 27.8805 195.485 28.37 195.958 28.4375C196.194 28.4713 196.38 28.3869 196.515 28.3194C195.654 30.1255 194.776 32.3198 194.05 34.8518C193.291 37.4681 192.869 39.865 192.649 41.9074C191.906 41.6711 190.556 41.131 189.307 39.9157C188.395 39.0379 187.872 38.1095 187.568 37.485C188.581 35.9658 189.172 34.6323 189.526 33.7208C189.847 32.8769 189.965 32.3198 190.539 30.3956C191.012 28.8426 191.383 27.5598 191.636 26.682C191.771 26.8002 191.974 26.9859 192.244 27.1715C192.632 27.4416 193.392 27.9649 194.388 28.083Z" fill="#6D6C6C"/>
<path d="M199.84 12.2837C197.865 12.6719 196.397 14.2586 196.177 16.1323C195.907 18.3604 197.544 19.8795 197.696 20.0146C195.603 20.2678 193.51 20.5378 191.417 20.791C191.383 20.3015 191.367 19.6264 191.485 18.8499C191.89 16.3517 193.341 14.8157 193.645 14.4949C194.135 13.9886 195.857 12.3512 198.405 12.1993C198.996 12.1656 199.486 12.2331 199.84 12.2837Z" fill="#B74949"/>
<path d="M203.689 43.4773C205.039 43.2747 206.423 45.621 207.064 46.7013C210.778 53.0142 209.225 60.3062 208.752 62.4331C208.381 64.1041 207.689 67.0581 205.528 70.3159C203.469 73.4555 201.038 75.3966 199.486 76.46C196.886 77.4559 192.16 78.8232 186.471 77.8948C184.496 77.5741 182.775 77.0339 181.34 76.46C178.909 76.6119 176.479 76.747 174.048 76.8989C173.66 76.8314 173.12 76.7301 172.478 76.4938C171.702 76.2068 170.959 75.9199 170.959 75.6498C170.959 75.346 171.803 74.8734 175.922 74.2319C175.719 74.2657 173.018 74.7889 171.212 72.8984C169.524 71.143 169.423 68.1384 170.706 66.9568C171.786 65.9609 173.542 66.3998 176.749 67.2606C179.922 68.1046 182.471 69.2524 184.328 70.2315C185.037 70.5522 190.556 72.9322 195.603 70.0289C199.452 67.8177 200.735 63.851 201.038 62.7538C202.254 58.3988 200.043 56.8628 200.836 50.5667C200.937 49.4864 201.663 43.7642 203.689 43.4773Z" fill="white" stroke="#161616" stroke-width="0.178501" stroke-miterlimit="10"/>
<path d="M170.065 70.721C172.023 70.8729 173.896 71.3455 175.685 72.1557C175.972 72.2908 176.242 71.8519 175.939 71.7169C174.065 70.856 172.107 70.3496 170.065 70.1977C169.744 70.1977 169.744 70.7041 170.065 70.721Z" fill="#161616"/>
<path d="M169.946 68.6617C172.191 68.5941 174.099 69.9614 176.192 70.6028C176.495 70.7041 176.63 70.2146 176.327 70.1133C174.2 69.455 172.259 68.0878 169.946 68.1553C169.625 68.1722 169.609 68.6785 169.946 68.6617Z" fill="#161616"/>
<path d="M172.107 66.8724C173.947 67.0243 175.567 67.9021 177.154 68.7967C177.441 68.9486 177.694 68.5266 177.407 68.3578C175.736 67.4294 174.048 66.5348 172.107 66.366C171.769 66.3323 171.769 66.8387 172.107 66.8724Z" fill="#161616"/>
<path opacity="0.18" d="M201.629 46.5831C200.633 50.5836 203.283 53.2843 204.178 57.8587C204.33 58.6689 205.528 65.2351 202.017 69.8939C198.101 75.0928 190.337 75.2785 188.817 75.3291C184.851 75.4304 183.349 74.2657 177.137 74.5864C176.546 74.6202 171.145 74.924 171.094 75.6836C171.077 76.0887 172.579 76.5444 173.71 76.6963C175.196 76.8989 175.972 76.5613 177.863 76.4094C178.673 76.3419 179.838 76.2912 181.272 76.4094C182.994 77.1183 185.222 77.8104 187.889 78.0805C188.615 78.148 190.877 78.3505 193.78 77.9286C193.78 77.9286 196.211 77.591 198.135 76.9158C202.912 75.2616 207.638 68.2903 208.972 60.6945C210.474 52.1365 207.132 45.6885 205.258 44.2537C205.005 44.0512 204.279 43.4941 203.52 43.6798C202.287 43.9499 201.781 45.9586 201.629 46.5831Z" fill="#6D6C6C"/>
<path opacity="0.17" d="M208.752 51.6639C208.482 51.6639 208.482 54.8879 207.74 58.939C207.284 61.4034 206.356 66.4167 204.111 69.9107C200.11 76.1393 191.94 77.5403 188.834 77.9117C191.501 78.283 195.603 78.3674 199.604 76.2406C208.28 71.6156 209.124 60.4581 209.276 58.4326C209.512 55.0229 209.022 51.6639 208.752 51.6639Z" fill="#6D6C6C"/>
<path d="M62.9971 115.536C69.9852 109.325 77.0072 103.147 84.0628 97.0194C97.364 85.4569 110.783 74.0462 124.338 62.7707C123.274 59.6142 121.907 54.1452 122.717 47.4946C122.97 45.3847 125.131 29.8385 139.377 21.8038C140.559 21.1286 156.915 12.2837 172.242 22.0401C182.353 28.4713 187.586 40.2026 186.353 51.6639C184.53 68.6954 169.406 76.2406 168.528 76.6626C157.624 81.8615 144.509 80.3255 134.735 72.7296C120.05 84.8154 105.399 96.9181 90.764 109.055C84.3498 114.372 77.9524 119.689 71.555 125.023C70.2215 124.381 68.0103 123.098 66.0185 120.752C64.3474 118.794 63.4697 116.836 62.9971 115.536Z" fill="#161616"/>
<path d="M154.873 74.4851C169.658 74.4851 181.644 62.9981 181.644 48.8281C181.644 34.6581 169.658 23.1711 154.873 23.1711C140.087 23.1711 128.102 34.6581 128.102 48.8281C128.102 62.9981 140.087 74.4851 154.873 74.4851Z" fill="white" fill-opacity="0.5" stroke="#161616" stroke-width="0.178501" stroke-miterlimit="10"/>
<path d="M157.051 24.589C152.155 34.953 147.007 45.2159 141.623 55.3436C140.103 58.1963 138.567 61.0489 137.014 63.8847C136.862 64.1717 137.301 64.4249 137.453 64.1379C142.973 54.0777 148.256 43.8992 153.286 33.5858C154.704 30.6825 156.105 27.7623 157.506 24.8253C157.641 24.5552 157.202 24.302 157.051 24.589Z" fill="#E8E8E8"/>
<path d="M165.304 27.104C159.936 35.5776 154.839 44.2031 149.994 52.9805C149.842 53.2674 150.281 53.5206 150.433 53.2337C155.278 44.4563 160.375 35.8308 165.743 27.3572C165.912 27.0872 165.473 26.834 165.304 27.104Z" fill="#E8E8E8"/>
<path d="M149.1 55.9513C146.872 60.2894 144.492 64.5599 141.943 68.7292C141.774 69.0161 142.213 69.2693 142.382 68.9824C144.914 64.8131 147.31 60.5426 149.539 56.2045C149.69 55.9175 149.252 55.6475 149.1 55.9513Z" fill="#E8E8E8"/>
<path d="M158.468 43.2916C155.632 48.6255 152.814 53.9595 149.978 59.2935C149.826 59.5804 150.265 59.8336 150.417 59.5467C153.252 54.2127 156.071 48.8787 158.907 43.5448C159.059 43.2578 158.62 43.0046 158.468 43.2916Z" fill="#E8E8E8"/>
<path opacity="0.08" d="M154.079 23.0867C152.206 23.7619 139.867 28.3869 135.917 40.7765C135.461 42.2113 134.043 46.8363 135.107 52.1871C137.149 62.3824 147.344 70.6366 160.679 73.4048C159.667 73.7424 158.249 74.1475 156.493 74.367C145.893 75.7005 137.672 68.476 136.71 67.6151C134.617 65.7077 128.152 59.2259 128.034 48.9631C128.017 48.0685 128.068 37.9407 135.748 30.6319C140.221 26.3782 145.454 24.8253 147.648 24.2007C150.214 23.4749 152.459 23.2048 154.079 23.0867Z" fill="#6D6C6C"/>
<path d="M55.2997 75.1603C56.5151 75.0084 58.3381 74.9915 59.6715 76.0718C62.5411 78.4012 60.3299 83.4651 61.7477 88.8159C62.5073 91.6855 64.516 95.5509 70.3564 99.3826C72.6689 100.547 74.5931 101.425 75.9266 102.033C77.834 102.894 79.0493 103.383 79.0325 104.041C79.0156 104.7 77.8171 105.189 76.9563 105.476C77.9859 106.438 78.5092 107.654 78.1547 108.582C77.8847 109.308 77.142 109.662 76.3149 110.067C75.3696 110.54 74.5763 110.641 73.6648 110.759C71.9599 110.979 71.1159 111.08 70.3395 110.759C69.141 110.253 68.6009 109.139 67.8075 107.535C67.3687 106.658 66.8285 105.29 66.5416 103.518C64.6342 102.64 61.8997 101.121 59.182 98.5723C58.1186 97.5764 48.2609 88.1239 51.3668 79.9541C51.8394 78.8063 52.8353 76.9495 55.2997 75.1603Z" fill="white" stroke="#161616" stroke-width="0.178501" stroke-miterlimit="10"/>
<path d="M70.3902 108.666C70.8122 109.595 71.4537 110.371 72.2808 110.996C72.534 111.198 72.7872 110.759 72.534 110.557C71.7913 110 71.2173 109.257 70.8291 108.413C70.6941 108.126 70.2552 108.379 70.3902 108.666Z" fill="#161616"/>
<path d="M72.4161 108.396C72.9225 109.375 73.682 110.186 74.6104 110.793C74.8805 110.962 75.1337 110.523 74.8636 110.354C74.0028 109.814 73.3107 109.055 72.8381 108.143C72.703 107.856 72.2642 108.109 72.4161 108.396Z" fill="#161616"/>
<path d="M74.5424 107.248C75.015 108.244 75.8252 109.038 76.8211 109.51C77.1081 109.645 77.3782 109.206 77.0743 109.071C76.1459 108.633 75.4201 107.924 74.9813 106.995C74.8293 106.691 74.4073 106.945 74.5424 107.248Z" fill="#161616"/>
<path opacity="0.2" d="M55.7217 75.1941C55.3504 76.8651 54.9453 79.4984 55.2997 82.6717C56.2281 90.7064 61.427 96.0066 62.2879 96.8675C66.5753 101.121 69.3773 100.547 71.0822 104.345C71.5379 105.358 72.3482 107.654 74.5425 108.852C75.4034 109.308 76.2136 109.477 76.7537 109.544C76.4668 109.78 75.9942 110.101 75.3696 110.371C74.3231 110.827 73.4116 110.844 71.9768 110.861C70.9134 110.878 70.3732 110.878 69.9006 110.658C68.9047 110.202 68.4321 109.257 68.2464 108.785C67.5712 106.962 66.9129 105.139 66.2377 103.316C62.9462 101.628 58.2874 98.623 54.6077 93.4747C53.0716 91.331 50.5059 87.6512 50.7254 83.2288C50.8266 81.2201 51.4681 79.8191 51.62 79.4815C52.8184 77.0002 54.8102 75.7173 55.7217 75.1941Z" fill="#6D6C6C"/>
<path opacity="0.32" d="M50.9449 84.2584C51.0462 84.2247 51.6876 86.2502 52.9536 88.6134C56.0426 94.4537 60.4988 98.0322 63.6891 100.53C65.1407 101.661 66.3729 102.505 67.1494 103.029C68.0946 104.615 68.6348 105.982 68.9555 106.978C69.2256 107.805 69.3775 108.548 70.002 109.325C70.6435 110.169 71.4706 110.641 72.0782 110.911C71.6225 110.928 70.9304 110.894 70.2046 110.557C68.8205 109.915 68.2128 108.582 67.5714 107.164C67.2 106.354 66.7611 105.139 66.5248 103.569C57.7137 99.1125 54.4053 93.4916 53.1562 90.8246C51.8733 88.0901 50.8099 84.3259 50.9449 84.2584Z" fill="#6D6C6C"/>
<path d="M64.9213 59.7492C63.7228 60.2218 64.4318 62.585 62.5075 64.7287C61.5623 65.7921 60.4144 66.2985 59.6211 66.5855C60.1275 67.345 61.1234 68.5773 62.7607 69.5563C63.9254 70.2652 65.0394 70.6028 65.8159 70.7547C66.0691 70.299 66.4911 69.59 67.0144 68.7461C68.888 65.7921 69.5632 65.4714 69.6645 64.4924C69.9177 62.0955 66.4573 59.1415 64.9213 59.7492Z" fill="white" stroke="#161616" stroke-width="0.178501" stroke-miterlimit="10"/>
<path d="M64.7017 64.3067C65.3937 65.6908 66.1195 67.0581 67.2674 68.1215C67.5037 68.3409 67.8581 67.9865 67.6218 67.767C66.5078 66.7374 65.8157 65.387 65.1405 64.0535C64.9886 63.7666 64.5497 64.0198 64.7017 64.3067Z" fill="#161616"/>
<path d="M64.1957 63.3952C64.9722 64.9144 65.8161 66.4167 67.3016 67.345C67.5547 67.497 67.8079 67.1594 67.6054 66.9399C67.1159 66.4167 66.6095 65.8934 66.1369 65.3701C66.0187 65.4883 65.9005 65.6064 65.7824 65.7246C66.0693 66.0284 66.3732 66.3154 66.7108 66.5517C66.8289 66.6361 67.2003 66.8049 67.2678 66.9062C67.3691 67.075 67.2678 67.345 67.2172 67.5138C67.386 67.5645 67.5379 67.5982 67.7067 67.6489C67.7235 67.5645 67.7235 67.4801 67.7404 67.4126C67.7742 67.1931 67.5041 66.9568 67.3184 67.1594C67.3184 66.9737 67.2678 66.788 67.1496 66.6361C66.9977 66.7205 66.8627 66.8049 66.7108 66.8893L67.2678 67.6489C67.4028 67.5476 67.5379 67.4463 67.6729 67.345C67.521 67.1762 67.4028 67.0074 67.2847 66.8218C67.1328 66.6023 66.7108 66.7374 66.8289 67.0243C66.9302 67.2438 66.964 67.3282 67.1159 67.5138C67.3184 67.767 67.6729 67.4126 67.4703 67.1594C67.4197 67.075 67.3691 66.9906 67.3184 66.8893C67.1665 66.9568 67.0146 67.0243 66.8627 67.0918C67.0146 67.3113 67.1665 67.5138 67.3353 67.7164C67.521 67.9358 67.9092 67.6489 67.7404 67.4126C67.5547 67.1594 67.3691 66.9062 67.1834 66.653C66.9977 66.3829 66.6095 66.6192 66.7445 66.9062C66.9133 67.2438 67.2509 68.0371 67.7067 67.5307C67.5716 67.4463 67.4197 67.3619 67.2847 67.2775C67.2678 67.3619 67.2678 67.4463 67.2509 67.5138C67.2003 67.8345 67.656 67.9696 67.7404 67.6489C67.8586 67.2438 68.1455 67.0581 67.8079 66.653C67.656 66.4673 67.4028 66.3829 67.2172 66.2647C66.8289 66.0116 66.4913 65.7077 66.1706 65.3701C65.9512 65.1338 65.5967 65.4883 65.8161 65.7246C66.3057 66.2479 66.7952 66.7711 67.2847 67.2944C67.386 67.1594 67.4872 67.0243 67.5885 66.8893C66.1875 66.0116 65.411 64.5599 64.6683 63.1251C64.4827 62.8382 64.0438 63.1083 64.1957 63.3952Z" fill="#161616"/>
<path d="M80.4506 55.2761C80.113 56.7784 79.421 59.0065 77.8343 61.3021C75.0491 65.3364 71.2681 67.0412 69.6477 67.6658C68.7193 67.3113 67.5039 66.6868 66.3561 65.6233C63.2165 62.7032 62.9802 58.7027 62.9464 57.673C62.6089 57.5886 62.1193 57.403 61.6974 56.9978C60.6171 55.9513 60.3639 53.8751 61.3598 53.0143C62.4907 52.0352 64.6513 53.2337 64.8876 53.3519C65.4109 53.6388 65.7822 53.9933 66.0185 54.2634C66.9469 51.4613 69.175 49.3514 71.8251 48.9125C75.4374 48.3217 79.3872 50.9549 80.4506 55.2761Z" fill="white" stroke="#161616" stroke-width="0.178501" stroke-miterlimit="10"/>
<path d="M76.3655 59.3103C75.6903 60.8295 74.6944 62.1292 73.4116 63.1927C73.1584 63.3952 73.5128 63.7497 73.766 63.5471C75.0995 62.4668 76.1123 61.1333 76.8044 59.5635C76.9394 59.2597 76.5005 59.0065 76.3655 59.3103Z" fill="#161616"/>
<path d="M72.7702 62.0617C72.7026 62.6356 72.9052 63.1927 73.2934 63.6147C73.5129 63.851 73.8673 63.4965 73.6479 63.2602C73.3441 62.9226 73.2259 62.5175 73.2765 62.0617C73.3103 61.741 72.8039 61.741 72.7702 62.0617Z" fill="#161616"/>
<path d="M71.7408 59.1753C72.1797 58.5676 72.703 58.0275 73.2938 57.538C73.1587 57.4536 73.0068 57.3692 72.8718 57.2848C72.6523 57.96 72.1797 58.5001 71.5552 58.8377C71.6564 58.9728 71.7577 59.1078 71.859 59.2428C72.2472 58.7702 72.6355 58.3144 73.0237 57.8418C73.2263 57.5886 72.8718 57.2342 72.6692 57.4873C72.281 57.96 71.8928 58.4157 71.5045 58.8884C71.3189 59.1078 71.5552 59.4285 71.8084 59.2935C72.5511 58.8884 73.0912 58.23 73.3613 57.4367C73.4457 57.1666 73.125 57.0485 72.9393 57.1835C72.3148 57.6899 71.7746 58.2638 71.3189 58.9221C71.1163 59.1922 71.5552 59.4454 71.7408 59.1753Z" fill="#161616"/>
<path d="M77.3448 60.6607C77.5642 60.2894 77.8511 59.9687 78.1719 59.6817C78.0368 59.5973 77.8849 59.5129 77.7499 59.4285C77.5979 59.9349 77.2941 60.3906 76.8552 60.7114C76.9734 60.8126 77.1084 60.897 77.2266 60.9983C77.3279 60.7282 77.4798 60.475 77.6655 60.2556C77.868 60.0024 77.5136 59.6479 77.311 59.9011C77.0747 60.205 76.889 60.5088 76.754 60.8633C76.6696 61.0658 76.9565 61.2853 77.1253 61.1502C77.6655 60.7451 78.0537 60.2218 78.2394 59.5804C78.3238 59.3272 78.0031 59.1753 77.8174 59.3272C77.4629 59.6311 77.1591 60.0024 76.9059 60.4075C76.7202 60.6776 77.1591 60.9308 77.3448 60.6607Z" fill="#161616"/>
<path d="M70.0023 57.9262C70.2554 58.517 70.3905 59.1247 70.3905 59.7492C70.3905 59.918 70.6437 59.918 70.6437 59.7492C70.6437 59.074 70.4918 58.4157 70.2217 57.7912C70.1542 57.6393 69.9347 57.7743 70.0023 57.9262Z" fill="#161616"/>
<path d="M69.2932 57.4873C69.4619 57.7574 69.5801 58.0275 69.6814 58.3144C69.732 58.4664 69.9683 58.3988 69.9177 58.2469C69.8164 57.9262 69.6814 57.6393 69.5126 57.3523C69.4282 57.2173 69.2088 57.3523 69.2932 57.4873Z" fill="#161616"/>
<path d="M73.1923 56.1032C73.8169 55.9175 74.4077 56.3395 74.4245 56.9978C74.4245 57.2342 74.8128 57.251 74.8128 56.9978C74.779 56.1032 73.9688 55.4956 73.091 55.7319C72.8547 55.7994 72.956 56.1707 73.1923 56.1032Z" fill="#161616"/>
<path d="M77.7161 58.5845C77.9861 58.4157 78.3069 58.3988 78.5938 58.5676C78.7964 58.7027 78.9989 58.3651 78.7795 58.2469C78.3913 58.0106 77.9018 58.0106 77.5304 58.2638C77.3278 58.3988 77.5135 58.7196 77.7161 58.5845Z" fill="#161616"/>
<path d="M69.4789 62.9226C69.884 63.6484 70.5761 64.1717 71.3863 64.3911C71.707 64.4755 71.842 63.986 71.5213 63.9016C70.8293 63.7159 70.2722 63.2939 69.9178 62.6694C69.749 62.3825 69.3101 62.6356 69.4789 62.9226Z" fill="#161616"/>
<path d="M66.0015 54.9385C66.3729 54.2971 67.2675 52.9298 68.9892 51.9846C70.1708 51.3263 71.2849 51.1406 71.96 51.0731C72.3314 51.5626 72.9391 52.204 73.8337 52.6091C75.9436 53.5713 77.6485 52.3053 78.8976 53.1493C79.5559 53.5882 80.2142 54.6516 79.961 57.5549C81.075 58.7027 81.8177 58.7702 82.2228 58.6858C83.9108 58.3482 85.1261 54.5503 84.0627 51.782C83.742 50.9549 83.32 50.4823 79.7415 47.6296C74.6945 43.6123 74.07 43.376 73.4117 43.2241C69.9345 42.4138 66.8624 44.1693 66.3391 44.4732C65.6639 44.8614 65.512 45.0471 61.6466 49.1151C58.642 52.2715 58.3551 52.5585 58.085 53.335C57.376 55.293 57.5111 58.1288 59.3172 60.205C61.022 62.1461 63.3177 62.4331 63.9085 62.5006C63.6553 61.9267 63.3852 61.1165 63.2502 60.1206C63.0814 58.8377 63.2502 57.7743 63.4021 57.0822C63.2839 56.9978 62.6087 56.4408 62.5581 55.4955C62.5243 54.8035 62.845 53.9257 63.5877 53.6388C64.4148 53.3181 65.5458 53.8076 66.0015 54.9385Z" fill="#003777"/>
<path d="M65.2756 46.4481C64.5835 45.0808 62.558 44.8783 62.2035 44.8445C59.3846 44.5576 57.1227 47.0726 55.7892 48.5411C53.4261 51.1575 54.1013 51.934 51.8056 55.0904C48.7673 59.2766 46.4886 59.4623 46.0159 62.3487C45.9822 62.5681 45.5602 65.4714 47.4845 67.2269C49.1387 68.7461 51.8056 68.7629 53.5611 67.8514C55.9412 66.6192 55.7386 64.1379 57.4603 59.9686C60.8362 51.8327 66.6091 49.0813 65.2756 46.4481Z" fill="#003777"/>
<path opacity="0.12" d="M67.9933 52.5923C67.4532 53.9426 66.8117 56.0863 66.8455 58.7702C66.8961 63.0576 68.6516 66.1972 69.5294 67.5476C68.5672 67.1425 66.9637 66.2816 65.5626 64.5937C64.9887 63.9016 63.6384 62.2643 63.2839 59.7492C63.1151 58.6183 63.2164 57.673 63.3177 57.0316C63.2164 56.9472 62.5243 56.3226 62.5581 55.3436C62.575 54.7022 62.9126 53.8413 63.6384 53.5882C64.4486 53.3012 65.5627 53.8245 66.0015 54.9554C66.1703 54.6178 66.4066 54.1958 66.7611 53.7569C67.2 53.2337 67.6388 52.8623 67.9933 52.5923Z" fill="#6D6C6C"/>
<path opacity="0.13" d="M65.0225 64.9481C64.8875 65.252 64.7356 65.5558 64.5499 65.8596C63.7059 67.2775 62.6087 68.2228 61.7479 68.7967C61.444 68.611 61.0389 68.3241 60.6338 67.8852C60.1949 67.4126 59.9249 66.9399 59.7729 66.6023C60.4313 66.3998 62.0686 65.7752 63.1826 64.1379C63.5709 63.5471 63.8072 62.9732 63.9422 62.5006C64.2967 63.3277 64.6512 64.1379 65.0225 64.9481Z" fill="#6D6C6C"/>
<path opacity="0.18" d="M63.5373 56.7446C63.6217 57.9093 63.8411 59.4285 64.415 61.1333C65.2084 63.4458 66.3562 65.1507 67.2339 66.231C66.3562 65.522 65.3096 64.4586 64.4657 62.9732C63.9086 61.9773 63.0815 60.5425 63.1828 58.5845C63.2166 57.8249 63.3854 57.1835 63.5373 56.7446Z" fill="#6D6C6C"/>
<path opacity="0.32" d="M66.1197 44.8952C65.4108 45.5872 60.9883 50.0434 61.596 56.3733C61.8492 59.074 62.9295 61.1165 63.7059 62.3149C63.1658 62.2812 62.1192 62.163 60.9883 61.5047C59.8574 60.8464 59.216 59.9855 58.929 59.5467C58.7096 59.1922 58.4395 58.6183 58.2707 57.8925C58.2707 57.8925 57.9669 56.4746 58.5239 54.7191C59.1147 52.7948 61.7817 49.0475 66.1197 44.8952Z" fill="#32198E"/>
<path opacity="0.33" d="M56.9874 47.6296C57.3757 47.8828 55.2319 52.3897 52.8688 56.3227C50.742 59.8505 49.6954 60.8295 49.5435 62.9901C49.3916 65.2351 50.3369 67.1594 51.1808 68.4591C50.7588 68.4929 49.1722 68.5435 47.788 67.4463C47.0285 66.8387 46.6233 66.1297 46.4377 65.6908C46.0326 64.5093 45.6781 62.7875 46.387 61.1671C46.8597 60.0699 47.4167 59.9855 49.1553 58.2301C50.6913 56.6771 52.2105 55.1411 53.3245 52.8623C53.8985 51.6976 54.101 50.8537 55.08 49.537C55.7215 48.6593 56.768 47.4777 56.9874 47.6296Z" fill="#003068"/>
</svg>
